/* XPM */
static char *result[] = {
/* columns rows colors chars-per-pixel */
"30 30 93 2 ",
"   c #32864E",
".  c #3C874D",
"X  c #3C8A4E",
"o  c #3F8754",
"O  c #3C8C54",
"+  c #3C8D59",
"@  c #3F9053",
"#  c #418C4D",
"$  c #43914F",
"%  c #408757",
"&  c #428D54",
"*  c #448E59",
"=  c #488F58",
"-  c #449255",
";  c #4A9556",
":  c #4C9957",
">  c #45935A",
",  c #4A945A",
"<  c #46995F",
"1  c #4D9A5B",
"2  c #51995D",
"3  c #449562",
"4  c #499662",
"5  c #459964",
"6  c #4B9B63",
"7  c #429A6B",
"8  c #4B9D6C",
"9  c #499D71",
"0  c #4EA163",
"q  c #4CA26D",
"w  c #55A165",
"e  c #50A36E",
"r  c #47A373",
"t  c #4BA473",
"y  c #4CA975",
"u  c #47A579",
"i  c #4AA679",
"p  c #4CAA7C",
"a  c #51A572",
"s  c #53AA76",
"d  c #51A77B",
"f  c #51AC7B",
"g  c #56B17B",
"h  c #4DAB81",
"j  c #51AD83",
"k  c #4EB081",
"l  c #4EB28A",
"z  c #54B384",
"x  c #58B281",
"c  c #53B48B",
"v  c #55B98D",
"b  c #5ABA8B",
"n  c #52B791",
"m  c #54BB93",
"M  c #5ABC94",
"N  c #54BB9A",
"B  c #5BBD9A",
"V  c #57C19B",
"C  c #5BC39E",
"Z  c #57C2A2",
"A  c #5BC6A5",
"S  c #5CC8A5",
"D  c #5ECAAB",
"F  c #62CEAB",
"G  c #63CEB2",
"H  c #65D1B4",
"J  c #69D2B3",
"K  c #6CD4BA",
"L  c #71D5BC",
"P  c #76D9C1",
"I  c #7BDBC4",
"U  c #83DDC7",
"Y  c #85DEC9",
"T  c #8BDFCC",
"R  c #8CE1CD",
"E  c #92E2CF",
"W  c #95E3D1",
"Q  c #9CE4D3",
"!  c #A1E5D7",
"~  c #A4E7D8",
"^  c #ACE7DB",
"/  c #A7E8D9",
"(  c #ACE9DC",
")  c #B1E9DD",
"_  c #BCECE2",
"`  c #C3EEE4",
"'  c #C9EEE6",
"]  c #CCEFE9",
"[  c #CDF0E8",
"{  c #D3F1E9",
"}  c #DBF3EB",
"|  c #E4F3ED",
" . c #EBF3ED",
/* pixels */
"& # $ # X - @ - , , = + + & - $ @ X X - - O , , & o + - - @ ",
"# , 1 > O > - + ; , , , : O # , 1 - & > - O : : , 2 > - - - ",
"; : : , , > > = & + o o - 6 6 6 w 6 6 , > , * O O O # - @ * ",
"O & - - - O O , , 1 6 8 q q t 8 8 a 9 5 5 1 > , > o - O @ ; ",
"1 & O X & - > > 4 5 q q q f s t r t q i i 8 4 + O ; @ - $ # ",
"  O - - = - < 6 9 t y y y p p p h f f p t t i 6 3 - O @ - - ",
"- > , - ; < 8 q t t y z v v V V V b v z p f i t e 1 1 - O - ",
": ; - - 1 8 t t i p c v V S D D D S A C m c p t q 5 - ; - o ",
". # # & 5 8 t y z v N A G K K L L K H D Z V b p 9 9 5 , , & ",
", - & < q r t p c C D K I T E Q W E R P G Z M c f i a 5 - ; ",
"& : : 6 q t p c N F K Y Q ) ` ` ` _ ^ W I H Z m z u t 0 , % ",
"# # - 6 7 t k N F L Y ! ` [ } | } } ' ( W P J S n j y q - - ",
"& 2 w e y f v B G P Q _ { |  . . . .| ] ( R K A M j i t 4 & ",
"- - 1 e i y c A H T ( { |  . . . . .| } ` Q I G N h s t 3 , ",
"* & , t t h n D L E ) }  . . . . . . .| [ ~ I H C c y u < $ ",
": O 3 8 y h m D K E _ }  . . . . . . .| { / U G V v p y < & ",
"  O 6 a a z m D K T _ } |  . . . . . .| ] ^ I H C c p t 7 - ",
"1 1 2 q s f v A K Y ^ { |  . . . . . .} ` Q P D B c g y > - ",
"& $ - 8 y f c V G I Q _ { | |  . .| | ] ) R K D m h y t < & ",
"& X & 5 t u h m S K Y ! ` { } | | } ' ( W P H Z c p f t - ; ",
", : ; 6 a y f c N F K Y ! ) _ ` ` _ ^ W P J Z m z p f 6 - & ",
"# - $ - 3 q y h M C D K I R W Q W R U P J A B c h u 7 > - & ",
"# , , - > q y y z M C D J K K P P K G F Z N b x p s 6 - - - ",
", : 1 < , 6 t i i p l n V A D F F D A C m c h i u > $ & = & ",
"O & - - > O 3 t a f h j c v V m M M c l h f f y 8 o - O O : ",
", & O & - O > 5 8 t y f f z z k p h h p f i q > - , @ - - # ",
"X X O & = - - > * 6 9 i r y y t i d f y t 8 > * - @ O @ - - ",
"@ - , ; , - > - * - 1 6 q 8 t t e e q 5 < ; + & ; ; ; - O - ",
": : - - : - - > % & O & - > , 1 > > : , O > & & - & - - & & ",
". X & = - - - + : - O o , , # . ; - @ - > - > - O o > - - - "
};
