/* XPM */
static char *_31f5cf5f4a844409c6e659e48b1340dnmiV9kkGZoDeuvJo[] = {
/* columns rows colors chars-per-pixel */
"30 30 133 2 ",
"   c #3B874E",
".  c #3B8A4E",
"X  c #3F8754",
"o  c #368B56",
"O  c #3D8D53",
"+  c #3B8D59",
"@  c #3F9053",
"#  c #428B4C",
"$  c #41914F",
"%  c #428D54",
"&  c #448E5A",
"*  c #488F58",
"=  c #449254",
"-  c #4A9656",
";  c #4C9956",
":  c #45935A",
">  c #4A945A",
",  c #45995F",
"<  c #4C9A5C",
"1  c #509E5E",
"2  c #458F62",
"3  c #459663",
"4  c #499765",
"5  c #469963",
"6  c #4C9B64",
"7  c #469E6F",
"8  c #4B9E6C",
"9  c #519D66",
"0  c #519E6E",
"q  c #469F72",
"w  c #4C9E71",
"e  c #4DA166",
"r  c #4DA26D",
"t  c #53A066",
"y  c #50A36E",
"u  c #46A174",
"i  c #4DA474",
"p  c #4EA976",
"a  c #46A378",
"s  c #4CA679",
"d  c #47A87D",
"f  c #4EAA7B",
"g  c #52A573",
"h  c #59A772",
"j  c #53AA75",
"k  c #52AC7C",
"l  c #59AC7A",
"z  c #54B17D",
"x  c #4DAD82",
"c  c #52AD80",
"v  c #50AE8A",
"b  c #4FB385",
"n  c #4FB38B",
"m  c #52B084",
"M  c #53B68C",
"N  c #56B98D",
"B  c #5ABA8D",
"V  c #51B792",
"C  c #55BB93",
"Z  c #58BD95",
"A  c #55BE9B",
"S  c #59BB98",
"D  c #56C19D",
"F  c #5AC29B",
"G  c #58C39F",
"H  c #54C1A0",
"J  c #58C2A3",
"K  c #58C4A1",
"L  c #5CC7A1",
"P  c #5AC5A4",
"I  c #59C7A6",
"U  c #5CC8A5",
"Y  c #5CC7A9",
"T  c #5DC9AA",
"R  c #5EC9AB",
"E  c #5FCCAA",
"W  c #5FCBAD",
"Q  c #60CCAA",
"!  c #60CBAD",
"~  c #62CCAC",
"^  c #65CDB1",
"/  c #66CFB4",
"(  c #68CEB5",
")  c #67D1B3",
"_  c #6AD3B5",
"`  c #6BD2B6",
"'  c #6BD5B6",
"]  c #6ED4B9",
"[  c #72D5BC",
"{  c #76D9BD",
"}  c #76D9BE",
"|  c #76D6C0",
" . c #77D8C0",
".. c #79DAC1",
"X. c #7CDAC3",
"o. c #7FDBC5",
"O. c #7EDCC5",
"+. c #86DFC7",
"@. c #89DECA",
"#. c #8BDFCD",
"$. c #8DE1CD",
"%. c #8DE2CD",
"&. c #97E4D2",
"*. c #9AE4D3",
"=. c #9AE4D4",
"-. c #9CE5D5",
";. c #9EE7D5",
":. c #A0E7D7",
">. c #A4E7D8",
",. c #A4E9D9",
"<. c #AAEADB",
"1. c #ACEADD",
"2. c #B0EBDF",
"3. c #B6EBE1",
"4. c #B2ECE0",
"5. c #B5ECE1",
"6. c #BDEEE4",
"7. c #C1EFE6",
"8. c #C2F1E7",
"9. c #C6F0E9",
"0. c #CBF1EA",
"q. c #CAF2EA",
"w. c #CBF2EB",
"e. c #D3F4EE",
"r. c #D7F5F0",
"t. c #D8F5F0",
"y. c #DBF7F1",
"u. c #DDF7F2",
"i. c #E2F8F4",
"p. c #E9FBF7",
"a. c #ECFBF8",
"s. c #F5FEFC",
"d. c #FEFFFF",
/* pixels */
"% $ $ #   = @ = > > * 3 3 6 9 6 5 : + = = O > > % X + = = = ",
"  > 1 - X - = @ < 0 g g k 7 q g l p r 8 6 @ ; > > < : - = % ",
"- > > - , : , 4 w i q w r p j j l f f j j w 3 X O   # = = : ",
"O % % = % + 8 j g g s s f m v x f k f u i j g 6 : X = O @ - ",
"< = X O : r i i i a b M N F F D V M M v f s i 8 5 - @ = = # ",
". O % - 0 i i p x M Z G I E E E R Q G Z M v f k s 5 O = = = ",
"@ : - 6 j i f m V G E ' } o.+.+.o.} _ R J C c s j g < = O = ",
"- - 5 r j j m C J ^ | #.;.<.2.2.<.:.#.X.^ L V v s i e : % O ",
"    5 i i f V H _ o.&.3.0.t.t.u.t.w.5.:.+.^ L N x q g 6 = - ",
"- - r i k M A Q X.:.8.t.s.s.s.s.s.a.t.8.=.o.Q G M f k y : % ",
"& t j p f Z T } &.7.i.s.d.d.d.d.d.s.s.i.6.=.[ I V x a i , % ",
"# 6 r p d D ^ @.5.t.s.d.d.d.d.d.d.d.d.s.r.4.#./ S M k i < % ",
": h l k M L [ &.9.a.d.d.d.d.d.d.d.d.d.d.a.8.&.] J N f f 6 % ",
": i g k C I { >.e.s.d.d.d.d.d.d.d.d.d.d.s.r.>. .I v k a 8 > ",
"3 q i f C Y +.1.t.s.d.d.d.d.d.d.d.d.d.d.s.t.<.X.! C x i 6 $ ",
"< r u f C Y o.2.u.s.d.d.d.d.d.d.d.d.d.d.s.y.<.o.R C z f r # ",
"o 7 i k C E o.>.t.s.d.d.d.d.d.d.d.d.d.d.s.t.>.+.T C x i e : ",
"1 l j f B U } ;.w.p.d.d.d.d.d.d.d.d.d.d.s.w.;.` U N z f 3 @ ",
"% 6 i f M D _ $.6.i.s.d.d.d.d.d.d.d.d.d.i.6.#._ G v f p 5 + ",
"# > i i x A R o.<.w.s.s.d.d.d.d.d.d.s.a.w.>.o.! Z x c g > > ",
"= < j i k N L ` @.<.e.p.s.s.d.d.d.s.a.e.4.#./ J C x j r : % ",
": > e r u m C U } $.2.w.i.p.a.a.a.t.w.1.$.[ ! S m d u 5 = % ",
"  - 6 g u k M Z E [ $.;.5.8.9.w.8.4.;.#.[ I G B k z r - = = ",
"- ; < r j f c M A U ) ] $.&.=.=.&.@.} _ R A M f d r = % & % ",
"O % % - y i u k M C J Y ) ' ] ] ' ) R D V N c k s 2 = O % ; ",
"< % O % : q s k k x N S J L U L A D C M M k f i 4 - @ = = # ",
"  o % % % : r i s f c x n M M M n M m x f f w 4 = = o = = = ",
"O & - - - = : 6 i i f z k f x c k z k k i r 3 % - - - = O = ",
"< ; - = ; = : : & 4 8 g g s k k f p j r 3 5 % % % % = - + O ",
"  # # % = : = + - = + & 9 8 3 > 6 5 : = : % - = O X & - = = "
};
