/* XPM */
static char *result[] = {
/* columns rows colors chars-per-pixel */
"30 30 105 2 ",
"   c #3C874D",
".  c #3C8A4E",
"X  c #3F8755",
"o  c #368C55",
"O  c #3D8D54",
"+  c #3C8D59",
"@  c #3F9053",
"#  c #428C4D",
"$  c #43914F",
"%  c #428D54",
"&  c #448E59",
"*  c #488F58",
"=  c #449255",
"-  c #499556",
";  c #4B9956",
":  c #45935A",
">  c #4A945A",
",  c #46985B",
"<  c #4C9A5C",
"1  c #50985B",
"2  c #459563",
"3  c #459866",
"4  c #4B9A65",
"5  c #459D69",
"6  c #4C9D6A",
"7  c #509D63",
"8  c #529D6B",
"9  c #449E70",
"0  c #4BA164",
"q  c #4DA06C",
"w  c #51A166",
"e  c #53A36D",
"r  c #47A376",
"t  c #4CA474",
"y  c #4DA976",
"u  c #4CA67A",
"i  c #4DAA7C",
"p  c #53A573",
"a  c #52AA76",
"s  c #5AAA77",
"d  c #50A77B",
"f  c #52AC7C",
"g  c #58AE7A",
"h  c #4FB07F",
"j  c #53B17D",
"k  c #5AB17F",
"l  c #4DAC81",
"z  c #52AE82",
"x  c #52AE88",
"c  c #4EB38C",
"v  c #52B183",
"b  c #59B685",
"n  c #53B48B",
"m  c #59B58F",
"M  c #55B98E",
"N  c #53B792",
"B  c #54BB94",
"V  c #5ABC94",
"C  c #56BD9A",
"Z  c #56C19C",
"A  c #5AC39E",
"S  c #57C5A5",
"D  c #5AC5A3",
"F  c #5CC9A5",
"G  c #59C7A9",
"H  c #5DCBAB",
"J  c #5ECEB1",
"K  c #62CEAC",
"L  c #60CFB1",
"P  c #62D1B5",
"I  c #65D5BA",
"U  c #69D7BD",
"Y  c #67D8BE",
"T  c #69D8BD",
"R  c #6ED7C2",
"E  c #6DDAC3",
"W  c #72DDC5",
"Q  c #75DFC9",
"!  c #76E0C9",
"~  c #7CE2CD",
"^  c #7FE3D0",
"/  c #83E4D2",
"(  c #89E7D5",
")  c #8BE8D6",
"_  c #8FE9D8",
"`  c #93EADB",
"'  c #9AEDDE",
"]  c #9EEDE1",
"[  c #A3EFE3",
"{  c #A7F0E4",
"}  c #ACF1E6",
"|  c #AEF2E8",
" . c #B4F3EA",
".. c #BCF5EE",
"X. c #C1F6EF",
"o. c #C3F7F0",
"O. c #C5F8F1",
"+. c #CDFAF4",
"@. c #D2FBF6",
"#. c #D7FBF8",
"$. c #DBFDFA",
"%. c #E3FEFB",
"&. c #ECFFFD",
"*. c #F3FFFE",
"=. c #FDFFFF",
/* pixels */
"% $ $ #   @ @ = > > & + + & - # . # . + = = > > * + + & = = ",
". > < - + : = @ > 1 7 8 e 4 4 e e 4 = : - o ; ; * ; > = = = ",
"- ; ; > > - - > 2 8 u 9 t f f g k a p 6 , & & % o . # = = % ",
"O % % = & o 2 p f f u u y i u u t f i u t 7 = > : X = O O - ",
"< % O % % 4 t d t r i h v M b v i i y i l i 4 + % - = = $ # ",
". o % = 6 a i i i v M B B Z Z B B V n z i f f 6 : = o O = = ",
"= - - 4 s u i f c B A H J J J J H D A B x f u i w - ; = O = ",
"> - , t g y l M C G J Y E ! ! W E I P F B n u i t > = : = O ",
"    4 i y i n C K I E / _ ' ' ` ( ~ E P G B b i u 6 > : - % ",
"- > t u i c C H I ~ ` [  .o.o...| ] ( W P D V z i d 4 > = = ",
"% w g y l B F I ! ` | +.#.%.%.$.@.X.[ ( W J C n l i 5 = : % ",
"# w y y i Z H W _  .+.%.&.*.*.*.&.$.o.[ ^ I K V v l t > = = ",
"* s k f M D I ! [ O.%.&.=.=.=.=.*.&.#...` E H B v l t , = % ",
", a a z B G T ( } @.&.=.=.=.=.=.=.*.%.o.] ~ P S x l y 2 % > ",
"2 d u f B G R )  .$.*.=.=.=.=.=.=.=.&.+.[ / P D M v i , % $ ",
"< t r l B G E ` ..$.*.=.=.=.=.=.=.=.&.@.[ ^ I S c j i 3 = # ",
"o r f z V H T )  .#.*.=.=.=.=.=.=.=.&.+.{ ! P D m v i , @ - ",
"7 g f i V D I / [ +.&.*.=.=.=.=.*.*.$...` ! J C v z j > + O ",
"% w i i n A P ! ' ..#.&.*.=.=.*.*.%.@.} ( E H C x l r , = % ",
"# , p u v C G T / [ X.@.%.&.&.&.%.+. .` Q P F M l z q - = - ",
"> < a f z M A J T ( [  .O.@.@.+.o.} ' ~ T H N v v i 4 - = % ",
"% = 0 y r v M S P W / ` { } | { ' ( Q U H Z m x i r @ = = % ",
"# = 7 t y i v B G P T ! ~ / / / ~ W I H D c b b f 4 - = = - ",
"= 1 ; 6 f h v n N A G J P I T I I L F A M x l i 3 . @ @ & % ",
"O % = = 4 u l l v B B C S F G S A Z B x l n z q > X = O O - ",
"< % # % = 4 u l i i v m M C V M c v v l l f 4 % @ > @ = = # ",
"o O X & * = 3 p i f z i i h i i l z z z y 4 & & = = o = = = ",
"O = - - : = - , 3 t f v v v v v z g y 6 , = + = = - - = @ = ",
"; ; = = ; = = : % & : 4 6 t e e 6 , < > @ - % X = % - = % % ",
"  # % % = = = % > = . X > *     % = = = : + - = O X = = = % "
};
