/* XPM */
static char *result[] = {
/* columns rows colors chars-per-pixel */
"30 30 176 2 ",
"   c #00020E",
".  c #170D17",
"X  c #1C1013",
"o  c #280000",
"O  c #350208",
"+  c #38000C",
"@  c #251106",
"#  c #350C12",
"$  c #281418",
"%  c #3B1A17",
"&  c #373D32",
"*  c #490003",
"=  c #4A0A0E",
"-  c #530102",
";  c #5B0103",
":  c #5C0C05",
">  c #5A020C",
",  c #570B0E",
"<  c #470D11",
"1  c #4F0B11",
"2  c #570E13",
"3  c #421516",
"4  c #4C1312",
"5  c #491915",
"6  c #531414",
"7  c #5C1A18",
"8  c #610100",
"9  c #6A0405",
"0  c #6D0906",
"q  c #66050D",
"w  c #730302",
"e  c #780005",
"r  c #770907",
"t  c #7A0808",
"y  c #6E140D",
"u  c #7D150D",
"i  c #74190D",
"p  c #7D0010",
"a  c #6E1412",
"s  c #641816",
"d  c #741513",
"f  c #7A1712",
"g  c #761A13",
"h  c #7B1B14",
"j  c #562B10",
"k  c #7E2C07",
"l  c #682616",
"z  c #742819",
"x  c #492829",
"c  c #582E27",
"v  c #473B29",
"b  c #503A20",
"n  c #593828",
"m  c #512F31",
"M  c #4B3E36",
"N  c #732E29",
"B  c #3C472D",
"V  c #3C583B",
"C  c #376136",
"Z  c #454227",
"A  c #4B5A2F",
"S  c #524C32",
"D  c #55523C",
"F  c #6E4428",
"G  c #6E5B21",
"H  c #60433E",
"J  c #67543F",
"K  c #775935",
"L  c #43633B",
"P  c #5B6635",
"I  c #5B6A3E",
"U  c #786028",
"Y  c #6C6A3C",
"T  c #3B6C45",
"R  c #2F7F4A",
"E  c #337546",
"W  c #3B7542",
"Q  c #4F4E40",
"!  c #594943",
"~  c #5B5044",
"^  c #725C45",
"/  c #526741",
"(  c #457245",
")  c #4C7244",
"_  c #457649",
"`  c #447A49",
"'  c #587443",
"]  c #527847",
"[  c #64604A",
"{  c #73634B",
"}  c #820D0A",
"|  c #920000",
" . c #87160B",
".. c #921B0F",
"X. c #970419",
"o. c #821D13",
"O. c #8D1C11",
"+. c #951F13",
"@. c #AB0000",
"#. c #AB1E0B",
"$. c #893504",
"%. c #852315",
"&. c #8C2114",
"*. c #8F2D1C",
"=. c #932315",
"-. c #9C2516",
";. c #98281B",
":. c #89321C",
">. c #A82618",
",. c #A72C1C",
"<. c #A6321E",
"1. c #AB321D",
"2. c #BE381C",
"3. c #8E3820",
"4. c #A83F25",
"5. c #BB3A23",
"6. c #C22719",
"7. c #C3341F",
"8. c #C43B23",
"9. c #C63824",
"0. c #CC3C23",
"q. c #D33E24",
"w. c #805100",
"e. c #815F00",
"r. c #A65D0E",
"t. c #894729",
"y. c #8D4B2B",
"u. c #98472A",
"i. c #885A2D",
"p. c #9E502F",
"a. c #874F36",
"s. c #885533",
"d. c #A9482A",
"f. c #AF4C2D",
"g. c #B64327",
"h. c #B44F30",
"j. c #9F6D37",
"k. c #C6482B",
"l. c #D5462A",
"z. c #DD4428",
"x. c #D64A2B",
"c. c #DC4D2D",
"v. c #E34529",
"b. c #E44A2C",
"n. c #EB4A2C",
"m. c #CC633B",
"M. c #35854D",
"N. c #3C874E",
"B. c #3D8A4E",
"V. c #3E8752",
"C. c #3D8C54",
"Z. c #3C8E58",
"A. c #3F9053",
"S. c #45824E",
"D. c #49834A",
"F. c #418C4D",
"G. c #50874E",
"H. c #43914F",
"J. c #428D54",
"K. c #4A8E57",
"L. c #448E59",
"P. c #4A8E58",
"I. c #548B50",
"U. c #449255",
"Y. c #499556",
"T. c #4B9956",
"R. c #459259",
"E. c #4A945A",
"W. c #4D995A",
"Q. c #51995B",
"!. c #8A8546",
"~. c #99854D",
"^. c #A3924B",
"/. c #BEA252",
"(. c #B3AD64",
"). c #D9C870",
/* pixels */
"J.H.F.F.N.A.A.U.Y.E.L.Z.Z.R.H.H.C.B.B.A.U.U.Q.P.L.C.Z.R.U.A.",
"B.E.W.Y.A.R.R.A.Y.Q.E.Y.E.C.S.E.Q.U.J.R.Y.C.Y.Y.E.W.R.U.U.U.",
"U.T.W.Y.E.R.R.L.Z.C.V.V.B.Y.Y.T.W.Y.R.R.U.L.Z.C.C.N.F.U.J.L.",
"C.J.R.R.L.C.C.T.Y.E.L.L.U.U.U.C.U.R.U.C.Z.T.Y.E.L.C.U.C.A.Y.",
"W.J.B.J.J.U.R.K.J.B.J.U.U.W.E.U.B.J.J.J.J.L.J.C.C.E.A.U.H.F.",
"B.C.A.R.L.U.U.U.L.R.R.A.A.H.B.C.C.R.Y.R.U.R.L.L.R.U.C.B.U.Y.",
"A.R.Y.U.` ) ' ` J.J.U.Y.T.U.R.R.E.T.Y.R.R.Y.C.J.T.T.T.U.C.A.",
"E.T.U.U.W l 9.d.t.y.u.K ' D.Y.K p.s.I.Y.Z.R.C.J.J.J.U.R.U.C.",
"N.N.F.J.A.S.l ,.4.5.z.l.7.d.t.7.n.n.g.] U.A.T.U.N.J.L.R.R.Y.",
"Y.Y.J.L.R.R.E @ O   4 6 ;.1.0.l.5.c.0.,.!.G.R.U.R.J.E.E.R.J.",
"J.T.Y.H.J.R.Y.U.l } 1 .     = <.8.,.4.6./.(.( z ' C.C.U.L.J.",
"F.F.U.H.M.J.J.N.F -.d 2 7 g i , %.h 1.9.G ).~.@.k.G.R.Y.U.U.",
"J.Q.Q.T.E.Y.J.:.z s 1 ; > d =.=.f -.&.-.j j.m.9.b.f.C.R.R.J.",
"U.Y.K.K.L.C.p.v.*.> : g ; 1 a y y t q w 5 w 6.b.x.b.Y C.J.Y.",
"L.C.F.J.C.s.n.2...o. . .o.: # 8 ; * - - # 7 i >.z.b.f.B.F.H.",
"T.A.C.Y d.q.1.N x r O. .+.6 X < c ^ J x 5 0 t k &.l.1.F.K.J.",
"R S t.0.q.;.H ! n 8 O.>.w - o $ m ~ [ ~ c w X.r.e.p -.I J.Y.",
"W./ 3.:.s & D _ v q f O.+.&.#.a.{ v E.P.V : e $.w.9 0.k.] B.",
"C.F.J.J.J.K.S.R._ 5 =  .+.<.z.h.~.Q E.R.U.T Z * q d 1.z.' J.",
"F.B.B.J.U.Z.Z.A.J.5 ; 0 +.>.5.+.[ / J.V.C.U.E.L d 6 d K R.H.",
"Y.Y.Y.J.R.R.U.J.E 9 %.= 0 f 0 7 M J.R.Y.U.J.V.J.( _ ( R.L.J.",
"K.H.H.J.N.U.U.J.E.Z | u X # # 3 ` F.C.U.U.A.K.E.U.Z.Z.U.U.J.",
"B.Y.W.R.C.R.U.B.T.W j.i.+ % % B Y.R.Z.U.R.C.Q.Y.Y.E.Y.Y.U.H.",
"R.Q.W.Y.Y.R.T.R.C.P ^.n v ` ( T.Q.R.E.Y.U.J.J.J.C.B.B.J.L.L.",
"C.C.U.U.R.C.Z.T.R.L % , ( U.A.C.J.T.C.C.C.Y.R.R.R.V.U.C.A.T.",
"W.J.B.J.U.J.Z.L.J.C U b U.E.E.U.N.J.U.J.R.R.U.C.U.Y.A.U.H.B.",
"B.N.J.L.R.U.U.U.L.C A W A.U.B.C.C.K.R.U.A.R.L.L.R.A.Z.A.U.Y.",
"A.L.T.U.R.R.R.U.L.U.Y.T.Y.U.L.Y.T.U.Y.R.R.Y.C.J.T.Y.T.U.B.U.",
"W.E.U.U.T.T.R.U.J.J.J.J.R.J.E.T.U.U.E.Y.Z.R.C.J.J.J.H.T.J.C.",
"N.B.F.R.A.R.R.J.Y.U.V.C.E.Y.N.N.F.R.U.U.R.R.Y.U.C.V.L.R.R.L."
};
