/* XPM */
static char *result[] = {
/* columns rows colors chars-per-pixel */
"30 30 172 2 ",
"   c #000100",
".  c #00000E",
"X  c #130000",
"o  c #10050A",
"O  c #1A0110",
"+  c #3C0008",
"@  c #360E12",
"#  c #38121A",
"$  c #3E191C",
"%  c #15301A",
"&  c #373D26",
"*  c #47010A",
"=  c #4F040E",
"-  c #540000",
";  c #5B0002",
":  c #510009",
">  c #5F040B",
",  c #560F09",
"<  c #481508",
"1  c #571900",
"2  c #5C130C",
"3  c #481713",
"4  c #630304",
"5  c #6D0101",
"6  c #6E0D0A",
"7  c #770201",
"8  c #740D0C",
"9  c #7C160D",
"0  c #6C1211",
"q  c #6A1E1C",
"w  c #741511",
"e  c #771C16",
"r  c #7C1811",
"t  c #5B2517",
"y  c #5B2C13",
"u  c #562A1C",
"i  c #682214",
"p  c #682518",
"a  c #752E18",
"s  c #5A2C29",
"d  c #40392D",
"f  c #4B3928",
"g  c #513526",
"h  c #533B25",
"j  c #593F2E",
"k  c #443735",
"l  c #593D35",
"z  c #643C32",
"x  c #295534",
"c  c #355331",
"v  c #4E431D",
"b  c #694F14",
"n  c #4B4023",
"m  c #504E22",
"M  c #4C5226",
"N  c #48532F",
"B  c #4F4C37",
"V  c #474C3A",
"C  c #5A4339",
"Z  c #4B5938",
"A  c #545E31",
"S  c #714628",
"D  c #6C502E",
"F  c #635137",
"G  c #496139",
"H  c #536435",
"J  c #5E653C",
"K  c #55703E",
"L  c #756A3F",
"P  c #7B773B",
"I  c #326C43",
"U  c #367747",
"Y  c #3E7748",
"T  c #5D4741",
"R  c #604943",
"E  c #745C45",
"W  c #725849",
"Q  c #4B6E46",
"!  c #487846",
"~  c #4D7B4B",
"^  c #5B7144",
"/  c #667543",
"(  c #8B0000",
")  c #83150D",
"_  c #8D1B0E",
"`  c #830016",
"'  c #8B1D13",
"]  c #971817",
"[  c #9E1D10",
"{  c #991018",
"}  c #AE0110",
"|  c #9C220C",
" . c #8D370A",
".. c #8C2518",
"X. c #942214",
"o. c #9A2718",
"O. c #9F2A1A",
"+. c #A92717",
"@. c #A42A17",
"#. c #A82B16",
"$. c #A1271B",
"%. c #A42C1A",
"&. c #AB2E1B",
"*. c #BE2917",
"=. c #A7331F",
"-. c #AD311C",
";. c #B3321D",
":. c #BA341F",
">. c #943A21",
",. c #9D3824",
"<. c #AD3221",
"1. c #BB3620",
"2. c #BC3B23",
"3. c #C32F1C",
"4. c #C7341F",
"5. c #C33B22",
"6. c #C53A26",
"7. c #CB3E24",
"8. c #D23E24",
"9. c #A85213",
"0. c #9F6B00",
"q. c #864327",
"w. c #994C2E",
"e. c #8A5F31",
"r. c #8B5B38",
"t. c #B74026",
"y. c #BF4327",
"u. c #C74227",
"i. c #D44126",
"p. c #D44529",
"a. c #DB4529",
"s. c #DB492B",
"d. c #E34A2C",
"f. c #E84A2C",
"g. c #C1663C",
"h. c #826140",
"j. c #897753",
"k. c #937D58",
"l. c #32864E",
"z. c #3C854C",
"x. c #3D8B4E",
"c. c #3E904F",
"v. c #3D8652",
"b. c #3D8C54",
"n. c #3C8D59",
"m. c #3F9154",
"M. c #43824D",
"N. c #49874C",
"B. c #428C4D",
"V. c #51834C",
"C. c #43924F",
"Z. c #438552",
"A. c #4A8551",
"S. c #428D54",
"D. c #488E56",
"F. c #448E59",
"G. c #4A8F59",
"H. c #558A53",
"J. c #449255",
"K. c #499556",
"L. c #4C9957",
"P. c #459259",
"I. c #4A945A",
"U. c #4D995A",
"Y. c #529358",
"T. c #519A5B",
"R. c #958042",
"E. c #A58746",
"W. c #B49A4E",
"Q. c #AA9959",
"!. c #BDAF64",
"~. c #D7C66E",
/* pixels */
"D.C.C.b.v.m.m.P.I.I.J.n.n.J.J.C.m.z.x.b.J.J.Y.I.S.n.n.S.J.J.",
"z.K.U.K.m.P.J.m.K.L.I.I.U.v.z.K.T.J.J.P.K.b.L.K.I.L.P.K.J.J.",
"K.L.L.I.I.P.P.P.n.S.n.v.x.K.K.K.T.J.P.K.J.F.n.n.v.x.B.J.m.F.",
"b.S.S.J.S.n.m.P.K.I.F.Z.J.J.J.S.B.K.n.n.n.U.K.I.P.n.J.b.m.K.",
"U.S.v.S.C.J.P.F.S.v.m.K.K.U.U.J.v.S.J.S.P.F.D.b.n.K.m.J.J.B.",
"l.b.b.D.P.J.J.P.J.P.J.m.b.c.! ,.t.w.~ K.J.J.S.P.P.J.x.b.J.J.",
"m.P.K.J.I.F.J.J.n.J.K.L.K.L :.4.d.f.2.^ P.K.n.S.K.L.L.J.x.J.",
"U.L.J.J.L.K.P.P.S.S.Z.S./ a.a.O.a.s.1.@.R.H.J.Z.S.B.J.J.J.b.",
"M.H A U m.b.b.J.I.S.v.G =.d.p.X.i.2.<.*.W.!.~ w J Z.D.J.K.S.",
"y [ i.t.q.! J.S.S.K.M.t.-.2.a.X.$.X.;.6.b ~.Q.( p.^ I.L.J.D.",
"N.K a :.f.:.Z S.Z.M.>.d...X.@.' ' X...O.y E.g.3.i.u.~ J.G.S.",
"B.B.J.3 o.a.8.D ~ p 4.,.. i.;.- 0 r 6 7 3 7 4.s.p.f.r.J.J.D.",
"S.Y.T.Q ; @.d.d.o.8 r * = :.w ; ; - - > @ 3 9 1.s.d.y.V.J.S.",
"J.C.K.I.V q | &.e ) <.4.O.-.@ = s F j # * 4 5 4 ] p.a.^ n.L.",
"F.S.Z.J.! T z q : 6 u.d.u...o $ l E W R s 7 { 9.0.` #.N c.C.",
"U.m.v.B.S.Y T k 4 5.f.7.5.o.X C C & A.~ d 4 5  .0.1 +.5./ S.",
"l.b.J.I.G.P.Y $ ) -.-._ _ 2.; h.k.V I.P.n.& , 4 4 6 <.f.w.I.",
"U.U.K.S.L.M.< #.:.&.&.:.5.s.:.u j.B L.I.S.K.z.& r 0 w ;.^ m.",
"v.c.C.S.K.K.I p 7.i.5.&.&.@.i.:.C Q K.J.P.S.S.S.g f g G J.Z.",
"J.x.B.S.J.n.n.z.h u.d.u._ ; u.7.t K.b.b.n.S.L.P.n.S.I.P.J.K.",
"J.K.I.J.P.P.K.S.U 2 i.d.&.2.&.  D.S.P.K.J.S.z.S.K.S.J.P.J.S.",
"D.K.C.C.z.J.J.S.G.% :.p.5.;.+ c C.x.b.J.K.m.G.I.n.b.b.J.J.S.",
"z.K.U.P.b.K.J.m.B.P e.} u.r x J.U.J.m.n.K.b.L.Y.I.U.P.J.K.m.",
"K.U.U.P.I.P.J.J.M.n O X.;.c K.L.T.J.I.K.J.F.S.n.b.x.c.J.F.S.",
"b.n.J.J.S.n.b.P.K.H m %.>.b.m.v.D.K.n.b.n.K.K.K.F.v.J.b.b.L.",
"U.m.v.Z.J.J.F.F.U v M %.S U.I.J.z.S.S.J.P.P.S.b.J.I.m.J.J.B.",
"c.v.m.J.P.J.J.J.S.P.v.i G J.B.b.n.S.J.J.m.J.F.F.P.m.b.m.J.J.",
"b.J.K.K.P.P.P.K.n.J.K.M.D.J.S.S.K.K.K.P.J.K.n.J.L.K.L.m.m.m.",
"U.U.K.J.L.J.P.J.S.S.n.S.J.D.K.L.J.J.U.K.m.P.n.v.S.S.J.K.J.v.",
"l.x.N.J.m.J.P.n.I.J.x.Z.I.J.B.z.N.J.J.P.P.n.K.K.v.v.J.K.J.P."
};
