/* XPM */
static char *dddb1ed6da444d4db94e112c8ef6796aLNil6Zyu0akG2fnZ[] = {
/* columns rows colors chars-per-pixel */
"30 30 201 2 ",
"   c #1B000D",
".  c #180813",
"X  c #2E000F",
"o  c #3A020B",
"O  c #340A13",
"+  c #3E1717",
"@  c #3A271D",
"#  c #3D2D29",
"$  c #3B3626",
"%  c #410A0F",
"&  c #4A090E",
"*  c #5C0102",
"=  c #530309",
"-  c #56080A",
";  c #590A0F",
":  c #531A0F",
">  c #470D15",
",  c #4C0B12",
"<  c #540D14",
"1  c #471216",
"2  c #421219",
"3  c #521416",
"4  c #571B15",
"5  c #630103",
"6  c #6B0203",
"7  c #640709",
"8  c #62090D",
"9  c #6A0D0C",
"0  c #750602",
"q  c #740804",
"w  c #770807",
"e  c #7C0C04",
"r  c #68100E",
"t  c #7D140D",
"y  c #72190E",
"u  c #6A0014",
"i  c #631212",
"p  c #6D1613",
"a  c #751513",
"s  c #771A16",
"d  c #7A1A14",
"f  c #492511",
"g  c #492119",
"h  c #5B2A19",
"j  c #58301C",
"k  c #793A00",
"l  c #6B281A",
"z  c #792B17",
"x  c #7E241D",
"c  c #64311F",
"v  c #472929",
"b  c #453822",
"n  c #553827",
"m  c #533B37",
"M  c #6D2B26",
"N  c #722924",
"B  c #773E21",
"V  c #733832",
"C  c #3B4834",
"Z  c #3A5634",
"A  c #2E683C",
"S  c #5A4C1F",
"D  c #484828",
"F  c #584A2D",
"G  c #4C4F33",
"H  c #55443C",
"J  c #59503D",
"K  c #644B2A",
"L  c #714327",
"P  c #7E472A",
"I  c #65532E",
"U  c #6F5431",
"Y  c #7B5E38",
"T  c #46643A",
"R  c #536439",
"E  c #536839",
"W  c #7E652C",
"Q  c #6E623A",
"!  c #706139",
"~  c #7F7433",
"^  c #2C6E42",
"/  c #366E43",
"(  c #2F7442",
")  c #3A7646",
"_  c #397B46",
"`  c #377749",
"'  c #485741",
"]  c #545E41",
"[  c #614740",
"{  c #6A5642",
"}  c #4A6743",
"|  c #446D45",
" . c #556946",
".. c #437344",
"X. c #467748",
"o. c #4B794B",
"O. c #567845",
"+. c #7A6347",
"@. c #7D6F50",
"#. c #811503",
"$. c #81150D",
"%. c #8B190E",
"&. c #94190E",
"*. c #910016",
"=. c #861710",
"-. c #8D1D12",
";. c #811C19",
":. c #961316",
">. c #921F13",
",. c #A1000B",
"<. c #AB1A15",
"1. c #8D2217",
"2. c #8D2C1C",
"3. c #962213",
"4. c #9B2416",
"5. c #972C17",
"6. c #942319",
"7. c #9F2619",
"8. c #942B1D",
"9. c #9C2B1B",
"0. c #913411",
"q. c #A42617",
"w. c #A72617",
"e. c #A42813",
"r. c #A52D1B",
"t. c #AA2E1B",
"y. c #BC201D",
"u. c #B12C19",
"i. c #A6301E",
"p. c #AE321E",
"a. c #B5321E",
"s. c #BE341F",
"d. c #983B23",
"f. c #A63622",
"g. c #BC3620",
"h. c #B23923",
"j. c #BC3B23",
"k. c #C02418",
"l. c #C63623",
"z. c #C33B22",
"x. c #CC3D24",
"c. c #D63B22",
"v. c #854A03",
"b. c #816300",
"n. c #B36F0B",
"m. c #854226",
"M. c #954226",
"N. c #88522F",
"B. c #845C37",
"V. c #925534",
"C. c #A7492C",
"Z. c #BF4124",
"A. c #886834",
"S. c #AF672D",
"D. c #A76632",
"F. c #C64228",
"G. c #CE4629",
"H. c #D44126",
"J. c #D54529",
"K. c #DB4528",
"L. c #DD4529",
"P. c #E2462A",
"I. c #E44A2C",
"U. c #EA4A2C",
"Y. c #8A764F",
"T. c #34864E",
"R. c #3B864D",
"E. c #3D8A4E",
"W. c #3E8752",
"Q. c #3D8C54",
"!. c #3B8C58",
"~. c #3F9054",
"^. c #46864E",
"/. c #428C4D",
"(. c #55854A",
"). c #42914E",
"_. c #4C8154",
"`. c #458B56",
"'. c #438D54",
"]. c #498B54",
"[. c #448E59",
"{. c #449255",
"}. c #4A9456",
"|. c #499656",
" X c #4B9956",
".X c #4D9957",
"XX c #459159",
"oX c #46915A",
"OX c #469558",
"+X c #499259",
"@X c #499559",
"#X c #4B945A",
"$X c #4D995A",
"%X c #52975C",
"&X c #52995C",
"*X c #658D51",
"=X c #948746",
"-X c #A18F4B",
";X c #AFA354",
":X c #CBAC61",
">X c #D3C271",
/* pixels */
"].).).E.R.{.~.~.@X@X`.Q.} c ].).Q./.E.Q.{.~.@X@X`.Q.!.oX{.{.",
"E.+X&XOXQ.OXoX~..X@X}.o.1.d.W.}.$XoX'.OXOXQ..X.X@X#XOXOX{.{.",
"OX.X.X@X@XoX{.oX`.Q.!.2.u.M.}. X&X{.oXOXOX[.[.Q.Q.R./.{.{.'.",
"Q.'.{.{.{.!.Q.}.].@XT l.p.z.T './.@X'.!.Q. X}.oXoXQ.{.Q.{.{.",
"$X'.E.'.{.'.oXoX`.Q.U L.4.H.P {.R.].{.{.oX[.'.Q.Q.@X~.{.)./.",
"T.Q.Q.}.oX{.{.].'.Q.Z.L.t a.s.( W.].{.{.{.{.[.oXoX{.E.~.{.OX",
"~.OX@X{.}.{.{.}.A f.K.w.5 p x.P  X}.{.oX~.{.Q.'..XOX.X{.Q.{.",
"$X X{.'..X .l B 2.a.3.6 5   8.H.K {.$X+X{.oX'.Q.'.'.{.{.'.Q.",
"R.E./.].~.~.F ;.8.f.i.p.z.9.O 8.x.K {.~.oX{.$X{.Q.W.{.oXOX`.",
"{.{.{.`.{.{.{.b =.d i > x i.4.d z.U.M.Q.~.`.].{.oX[.@XOX{.{.",
"{..X}.).[.{.OX'.j w.4.q = . < a.j.f.h.! {.]./.'.].Q.~.{.}.`.",
"/./.{.{.T.{.'.Q.%Xh q.q.0 < p r.h.J.G.<.A.(.&X&XoXoXoX{.{.{.",
"].&X&X$X@X@XOX'.Q.A ;.q.6 i >.a x.I.9.y.S.>X*XE F  X).{.oX'.",
"~.{.{.OX[.Q.oXOXoXoXc w.8 8 i.t.e.i.3.L.0.;X>XF y.V.).Q.'.@X",
"{.'.'.{.{.Q.[.R I I : q ; < ;.7.%.7.1.a.d ~ :XC.s.P.B.'./.).",
" XQ.Q.^.'.{.L H.P.&.u.5.% 2 5 r d =.y $.r h w.K.J.H.K.O.}.^.",
"T.!.].}.}.U K.I.g.6 1.h.9.. 1 5 7 5 8 6 < X =.p.J.L.I.V.~.OX",
"$X$X}.~.O.j.I.F.p -.e e >.5 - * * g 1 , o , = 5 :.x.I.F.o.~.",
"W.E.'.].m.I.G.6.7 t -.4.0 * - 2 n +.@.[ v 5 #.:.v.y l.r.) Q.",
")./././ g.J.q.%.; 9 w.>.3.1.* # m v T  .H 3 #.*.n.b.* r.N.}.",
"{.}.}.m.L.e.s M 3 6 9 -.7.z.c.C.@.J +XOX/.$ * 6 6 k w x.U.! ",
"R R z u.e.N H ' $ % , t 3.J.L.Z.Y.{ _ {.@X'.X.b = u r q.H.Q ",
"j e =.x V H | Q.D * 6 q 4.t.u.2.{ ] Q.{.{.Q..X&XG t 4 a U ).",
"OX(. ._.o.`.OXOX$ e p & w a q l m X.@X}.OX[.Q.Q.Q.^ _ ) `.].",
"Q.Q.{.{.{.!.Q.}._ y ,.8 . O O + | @X`.!.Q.$XOXOX[.W.'.Q.Q.|.",
"$X{.W.{.{.'.[.[.`.f D.B o @ @ Z T.'.'.Q.[.XX'.E.{.}.{.{.{./.",
"E.Q.W.{.[.{.'.{.` =X-X+ ) {.E.Q.Q.`.{.{.{.oX[.[.XX~.Q.~.{.{.",
"~.oX}.{.}.oX{.OX..D 4 < @X{.{.`.}.}.}.oX{.OXQ.'.|. X}.~.Q.{.",
"$X XOX{..XOXQ.oX` S W C {.{..X.X{.{. XOX~.OXQ.'.'.'.{.{.{.'.",
"R.E./.`.~.{.'.{.R.T Z _ +X'.E.E.].{.{.{.oXoXOX{.W.W.{.OX{.{."
};
