/* XPM */
static char *_c83d165402e411d9f5e0689a545143eDfRS7aAM0t7WlIlm[] = {
/* columns rows colors chars-per-pixel */
"30 30 154 2 ",
"   c #010000",
".  c #080700",
"X  c #050B00",
"o  c #04020A",
"O  c #0E090D",
"+  c #061001",
"@  c #0E1200",
"#  c #0F1A0A",
"$  c #070417",
"%  c #0D0E13",
"&  c #00001C",
"*  c #0E0E18",
"=  c #110E1A",
"-  c #111515",
";  c #141B15",
":  c #14121B",
">  c #161C19",
",  c #1C1D1B",
"<  c #1A2402",
"1  c #1B221D",
"2  c #222219",
"3  c #26281E",
"4  c #000023",
"5  c #0C0325",
"6  c #150B27",
"7  c #1C1C23",
"8  c #281F33",
"9  c #1D2521",
"0  c #1F2822",
"q  c #222D25",
"w  c #222B29",
"e  c #243127",
"r  c #25352A",
"t  c #28372A",
"y  c #273B2C",
"u  c #293C2D",
"i  c #2A3F30",
"p  c #29422E",
"a  c #2B4432",
"s  c #2C4B34",
"d  c #2E4E38",
"f  c #314E38",
"g  c #2E5036",
"h  c #2E5239",
"j  c #2E5B3C",
"k  c #32543A",
"l  c #335B3D",
"z  c #385B3F",
"x  c #36643F",
"c  c #36683E",
"v  c #140442",
"b  c #190053",
"n  c #260E4C",
"m  c #2A1B4C",
"M  c #23005C",
"N  c #2C1258",
"B  c #311E53",
"V  c #36205A",
"C  c #290367",
"Z  c #300C6D",
"A  c #301062",
"S  c #34156E",
"D  c #3D137A",
"F  c #3C2866",
"G  c #41216F",
"H  c #4E3767",
"J  c #54337C",
"K  c #355D41",
"L  c #385D41",
"P  c #356341",
"I  c #396443",
"U  c #356B44",
"Y  c #3A6B45",
"T  c #3B6548",
"R  c #3B6E49",
"E  c #377147",
"W  c #3B7346",
"Q  c #3C7847",
"!  c #35754A",
"~  c #3C744A",
"^  c #3D7B4C",
"/  c #377D50",
"(  c #406F46",
")  c #427647",
"_  c #42764D",
"`  c #417B4D",
"'  c #417C51",
"]  c #574378",
"[  c #60467D",
"{  c #3C854D",
"}  c #3B8A4E",
"|  c #3C8653",
" . c #3C8C53",
".. c #3B8C58",
"X. c #3F9054",
"o. c #43844D",
"O. c #428B4D",
"+. c #41914F",
"@. c #428650",
"#. c #438552",
"$. c #498453",
"%. c #418952",
"&. c #418E52",
"*. c #468B54",
"=. c #438C54",
"-. c #418E55",
";. c #448D57",
":. c #498B52",
">. c #438E58",
",. c #419155",
"<. c #449254",
"1. c #459256",
"2. c #499555",
"3. c #4A9557",
"4. c #4B9957",
"5. c #4C9856",
"6. c #459158",
"7. c #479458",
"8. c #4E925A",
"9. c #4B9459",
"0. c #4D985A",
"q. c #3B0A84",
"w. c #3B088A",
"e. c #401580",
"r. c #451E80",
"t. c #421788",
"y. c #52189D",
"u. c #472882",
"i. c #502D84",
"p. c #50248F",
"a. c #513681",
"s. c #583A8C",
"d. c #58279D",
"f. c #5219A0",
"g. c #604290",
"h. c #715193",
"j. c #77569E",
"k. c #6640A3",
"l. c #744CAD",
"z. c #651CCA",
"x. c #7124D9",
"c. c #845CBB",
"v. c #876AB0",
"b. c #8B65BE",
"n. c #9A7BBA",
"m. c #9C72D0",
"M. c #A87BE0",
"N. c #9C8AB6",
"B. c #B48FD8",
"V. c #B793DD",
"C. c #AEA0C3",
"Z. c #B98BEE",
"A. c #BF91F4",
"S. c #C8B6DC",
/* pixels */
":.+.+.&.{ ,.,.-.8.8.>.| | #.o.O.} ^ {  .,.-.9.8.>.....1.7.,.",
"} 9.0.7.| @.,.,.3.9.9.*.#.! ^ #.#.o.^ -.3. .5.:.#.9.9.6.1.,.",
"7.0.5.9.>.~ _ _ ~ ~ U R x Y ) ) ) _ ` ~ { @.| ~ ! } O.,.6.-.",
" .@.&.1.6./ R Y I I K L L L k K l R U j P ~ @.` ' &.&. . .5.",
"9.^ {  .%.~ ~ ~ I l L k f l k d d a l l l x U ! ~ 3. .{ o.O.",
"} U ~ ` _ ^ ~ T P l k d u p y u y u a d d k l @.~ ^ } Y ^ 1.",
"X.@.` o.` Y L k a u u u t e q q e r r r u a a U ~ R $.W { 1.",
"9.7.o.~ ( R k a u r r q 0 9 9 9 0 0 0 e r u p j P P W ` 1.| ",
"Q Y R Y P k a u u e q 1 - @ 3 2 X ; > q q e u s j k I o.@.-.",
"o.` ^ Y l d a r w q > : , &     6 : : ; 9 q e p h h L ' ~ o.",
";.O.Q x f d y r q > :     n.S.S.h.    * > 1 e y p s l ^ ' @.",
"O.) W l s p y e 1 +   [ F J C.N.M ] H   : 1 q t a s L ^ ^ 1.",
"^ $._ z d a r w # 8 o j.V.]     v.B.G o : ; q e p a l U ^ @.",
"{ ` ) z d i r w o B m.k.D V 2 7 F q.c.m.  , 1 e y s z U { @.",
"| ~ I f l a e 0 ,   b.A.M.i.    l.Z.Z.g.  7 1 e r f j U ^ o.",
"@.^ l k k a r 0 - . 4 u.a.5 o   m s.Z   O - 1 q u u j x ~ O.",
"! ! I I k u r q > . 6 t.y.A   $ e.f.S . $ > 0 e y a j l { ,.",
"$.$.I x z u y q , -   n d.N     r.p.$   % 1 0 e y s k Y Q { ",
"^ Q Y Y c a u e q ; %     C D D b   . % 1 0 e r u a l U R ^ ",
"O.Q I ~ U d p r q q > = % w.x.z.C O * > 1 0 r u i d Y ~ o.1.",
";.#.) Y I l d u e q q 1 ; X b v + > 1 0 0 e r p d P { @.-.:.",
":.) Q W U R g p u t q q 0 9 < < 9 1 0 q r u a a l U U R @.,.",
"o.:.$.) ! Q l s s a y e e q w w q e e r p s l I _ ` ` { O.,.",
"7.0.9.` ' ^ U l s j a y y y y y y y a s s L l x U Q { &.>.-.",
" . .1.o.~ ! ! R I l K h k a u y u a k k k L l L T ~ O. .,.3.",
"0.-. .@.` ^ ^ ~ I x U R I I l k d h l l R ' ~ ! ~ $.,.,.O.O.",
" . . .;.@.-.| -.` ~ ` E U Q U x Y ) _ Y W ~ | *.-. . .X.,.1.",
" .1.3.3.3.6.1.&.&.| o.*.o.{ ~ I ~ O.;.-.%.;.| -.3.4.5.,. .9.",
"0.0.1.1.5.1.6.6.%.;.&.-.:. .8.3.%.*.5.7. .9. .-.&.&.1.3.-. .",
"{ } O.,.,.1.6.,.9.,. .| 9.3.} { :.1.,.,.6.>.9.,. .@.6.1.1.-."
};
