/* XPM */
static char *_2079905932b440e8fc98685077df9e8SVIbUk71sxWr96mG[] = {
/* columns rows colors chars-per-pixel */
"96 128 16 1 ",
"  c None",
". c black",
"X c #2B1805",
"o c #3B3A3A",
"O c #4E2800",
"+ c #654809",
"@ c gray50",
"# c #98761A",
"$ c #C5A22D",
"% c #AF865E",
"& c #D4AD76",
"* c #A9A9A9",
"= c #CDCBD1",
"- c #DCDCE5",
"; c #E2E2E2",
": c #EDEDFC",
/* pixels */
"               .                               .                               .                ",
"             .+#+.                           .+#+.                           .+#+.              ",
"           ..@***@..                       ..@***@..                       ..@***@..            ",
"          .*@====*@*.                     .*@====*@*.                     .*@====*@*.           ",
"         .*@=----=*@*.                   .*@=----=*@*.                   .*@=----=*@*.          ",
"        .*=*-:::--=*=*.                 .*=*-:::--=*=*.                 .*=*-:::--=*=*.         ",
"       .*=*-:::::--=@*@.               .*=*-:::::--=@*@.               .*=*-:::::--=@*@.        ",
"       .=-*-::::::-=@**.               .=-*-::::::-=@**.               .=-*-::::::-=@**.        ",
"      .*-:*-::::::-=@=*@.             .*-:*-::::::-=@=*@.             .*-:*-::::::-=@=*@.       ",
"      .=::=-::::::-=*=**.             .=::=-::::::-=*=**.             .=::=-::::::-=*=**.       ",
"     .*-::-=::::::-*==**@.           .*-::-=::::::-*==**@.           .*-::-=::::::-*==**@.      ",
"     .*-:::*:::::--*==**@.           .*-:::*:::::--*==**@.           .*-:::*:::::--*==**@.      ",
"     .*-:::-*::::-*===**@.           .*-:::-*::::-*===**@.           .*-:::-*::::-*===**@.      ",
"     .*=::::-*::-*====**@.           .*=::::-*::-*====**@.           .*=::::-*::-*====**@.      ",
"     .*=-::::-***====***@.           .*=-::::-***====***@.           .*=-::::-***====***@.      ",
"     .@*=-::-*:-=@*=****@.           .@*=-::-*:-=@*=****@.           .@*=-::-*:-=@*=****@.      ",
"      .@*=--*-::==@****@.             .@*=--*-::==@****@.             .@*=--*-::==@****@.       ",
"      .*@@*=*=-:=*@**@@@.             .*@@*=*=-:=*@**@@@.             .*@@*=*=-:=*@**@@@.       ",
"       .**@@@*=@**@@@*@.               .**@@@*=@**@@@*@.               .**@@@*=@**@@@*@.        ",
"       ..****@***@***@..               ..****@***@***@..               ..****@***@***@..        ",
"      ..o.@*@*@@@*@*@.o..             ..o.@*@*@@@*@*@.o..             ..o.@*@*@@@*@*@.o..       ",
"     .+.&o..@@***@@..o%.+.           .+.&o..@@***@@..o%.+.           .+.&o..@@***@@..o%.+.      ",
"     +#.+&o+.......#o%O.#+           +#.+&o+.......#o%O.#+           +#.+&o+.......#o%O.#+      ",
"    .#$+X#&O+#+++##O%OX+#+.         .#$+X#&O+#+++##O%OX+#+.         .#$+X#&O+#+++##O%OX+#+.     ",
"    .#&#.+#&==###=&%OO.+#+.         .#&#.+#&==###=&%OO.+#+.         .#&#.+#&==###=&%OO.+#+.     ",
"    .+#$X.+##@*;*@OOO.X#++.         .+#$X.+##@*;*@OOO.X#++.         .+#$X.+##@*;*@OOO.X#++.     ",
"     .+++XO+##@;@XOOXX+++.           .+++XO+##@;@XOOXX+++.           .+++XO+##@;@XOOXX+++.      ",
"      ....XO+++*XXOXX....             ....XO+++*XXOXX....             ....XO+++*XXOXX....       ",
"          .XOOOXXXXX.                     .XOOOXXXXX.                     .XOOOXXXXX.           ",
"           ..XXXXX..                       ..XXXXX..                       ..XXXXX..            ",
"             .....                           .....                           .....              ",
"                                                                                                ",
"                                                                                                ",
"                                                                                                ",
"            ..........       ..             ..........       ..             ..........       .. ",
"         ..@**********@..  .+&$.         ..@**********@..  .+&$.         ..@**********@..  .+&$.",
"       ..*=-----------==*..$&$$.       ..*=-----------==*..$&$$.       ..*=-----------==*..$&$$.",
"     ..*=----------------=*+$$.      ..*=----------------=*+$$.      ..*=----------------=*+$$. ",
"    .*=---=************=--=*+#.     .*=---=************=--=*+#.     .*=---=************=--=*+#. ",
"   .*=****==-:::::::--==***=*+.    .*=****==-:::::::--==***=*+.    .*=****==-:::::::--==***=*+. ",
"  .@@*=-::::::::::::::----=*@.+.  .@@*=-::::::::::::::----=*@.+.  .@@*=-::::::::::::::----=*@.+.",
" .*=*:::::::::::::::::::----=+#. .*=*:::::::::::::::::::----=+#. .*=*:::::::::::::::::::----=+#.",
".-::*::::::::::::::::::::-===+#..-::*::::::::::::::::::::-===+#..-::*::::::::::::::::::::-===+#.",
" .**@-:::::::::::::::::-=*+&$$.. .**@-:::::::::::::::::-=*+&$$.. .**@-:::::::::::::::::-=*+&$$..",
"  .@o@==-----------------==+&$$.  .@o@==-----------------==+&$$.  .@o@==-----------------==+&$$.",
"   .***@@@*==--------==*@@**+##.   .***@@@*==--------==*@@**+##.   .***@@@*==--------==*@@**+##.",
"    .@*****@@@@@@@@@@@@****@...     .@*****@@@@@@@@@@@@****@...     .@*****@@@@@@@@@@@@****@... ",
"     ..@******************@.%.       ..@******************@.%.       ..@******************@.%.  ",
"      o..@**************@..+%.        o..@**************@..+%.        o..@**************@..+%.  ",
"      .o&..@@********@@..#o#%.        .o&..@@********@@..#o#%.        .o&..@@********@@..#o#%.  ",
" .....%Xo++o..........o$#o##&.   .....%Xo++o..........o$#o##&.   .....%Xo++o..........o$#o##&.  ",
".*;;;&X++o+o++o##++o++o$o###&.  .*;;;&X++o+o++o##++o++o$o###&.  .*;;;&X++o+o++o##++o++o$o###&.  ",
" ..@*+&+++o+o#o###+o+o+o&&&&X.   ..@*+&+++o+o#o###+o+o+o&&&&X.   ..@*+&+++o+o#o###+o+o+o&&&&X.  ",
"    .+#&&##oo#o####o#oo#++OOX.      .+#&&##oo#o####o#oo#++OOX.      .+#&&##oo#o####o#oo#++OOX.  ",
"    .O+##&&&&&&&&&&&&=#+OOOX.o      .O+##&&&&&&&&&&&&=#+OOOX.o      .O+##&&&&&&&&&&&&=#+OOOX.o  ",
"     .O+#####++++++++++OOOX.o*o      .O+#####++++++++++OOOX.o=o      .O+#####++++++++++OOOX.o*o ",
"     .XO+##++++OOOOOOOOOOX..o=o      .XO+##++++OOOOOOOOOOX..o=o      .XO+##++++OOOOOOOOOOX..o=o ",
"      .XO..+..O..O..O..OOX.XX=X.      .XO..+..O..O..O..OOX.XX*X.      .XO..+..O..O..O..OOX.XX=X.",
"       .XO++OOOOOOOOOOOOXX..o=o        .XO++OOOOOOOOOOOOXX..o=o        .XO++OOOOOOOOOOOOXX..o=o ",
"        .XOOXXXXXXXXXXXXXX. o*o         .XOOXXXXXXXXXXXXXX. o=o         .XOOXXXXXXXXXXXXXX. o*o ",
"         .XXX#$$$$$$$$##XX.  o           .XXX#$$$$$$$$##XX.  o           .XXX#$$$$$$$$##XX.  o  ",
"          ..#$&&&$$$$$$#+.                ..#$&&&$$$$$$#+.                ..#$&&&$$$$$$#+.      ",
"            .+#########+.                   .+#########+.                   .+#########+.       ",
"              ..........                      ..........                      ..........        ",
"                                                                                                ",
"                                                                                                ",
" ..       ..........             ..       ..........             ..       ..........            ",
".$&+.  ..@**********@..         .$&+.  ..@**********@..         .$&+.  ..@**********@..         ",
".$$&$..*==-----------=*..       .$$&$..*==-----------=*..       .$$&$..*==-----------=*..       ",
" .$$+*=----------------=*..      .$$+*=----------------=*..      .$$+*=----------------=*..     ",
" .#+*=--=************=---=*.     .#+*=--=************=---=*.     .#+*=--=************=---=*.    ",
" .+*=***==--:::::::-==****=*.    .+*=***==--:::::::-==****=*.    .+*=***==--:::::::-==****=*.   ",
".+.@*=----::::::::::::::-=*@@.  .+.@*=----::::::::::::::-=*@@.  .+.@*=----::::::::::::::-=*@@.  ",
".#+=----:::::::::::::::::::*=*. .#+=----:::::::::::::::::::*=*. .#+=----:::::::::::::::::::*=*. ",
".#+===-::::::::::::::::::::*::-..#+===-::::::::::::::::::::*::-..#+===-::::::::::::::::::::*::-.",
"..$$&+*=-:::::::::::::::::-@**. ..$$&+*=-:::::::::::::::::-@**. ..$$&+*=-:::::::::::::::::-@**. ",
".$$&+==-----------------==@o@.  .$$&+==-----------------==@o@.  .$$&+==-----------------==@o@.  ",
".##+**@@*==--------==*@@@***.   .##+**@@*==--------==*@@@***.   .##+**@@*==--------==*@@@***.   ",
" ...@****@@@@@@@@@@@@*****@.     ...@****@@@@@@@@@@@@*****@.     ...@****@@@@@@@@@@@@*****@.    ",
"  .%.@******************@..       .%.@******************@..       .%.@******************@..     ",
"  .%+..@**************@..o        .%+..@**************@..o        .%+..@**************@..o      ",
"  .%#o#..@@********@@..&o.        .%#o#..@@********@@..&o.        .%#o#..@@********@@..&o.      ",
"  .&##o#$o..........o++oX%.....   .&##o#$o..........o++oX%.....   .&##o#$o..........o++oX%..... ",
"  .&###o$o++o++##o++o+o++X&;;;*.  .&###o$o++o++##o++o+o++X&;;;*.  .&###o$o++o++##o++o+o++X&;;;*.",
"  .X&&&&o+o+o+###o#o+o+++&+*@..   .X&&&&o+o+o+###o#o+o+++&+*@..   .X&&&&o+o+o+###o#o+o+++&+*@.. ",
"  .XOO++#oo#o####o#oo##&&#+.      .XOO++#oo#o####o#oo##&&#+.      .XOO++#oo#o####o#oo##&&#+.    ",
"  o.XOOO+#=&&&&&&&&&&&&##+O.      o.XOOO+#=&&&&&&&&&&&&##+O.      o.XOOO+#=&&&&&&&&&&&&##+O.    ",
" o*o.XOOO++++++++++#####+O.      o=o.XOOO++++++++++#####+O.      o*o.XOOO++++++++++#####+O.     ",
" o=o..XOOOOOOOOOO++++##+OX.      o=o..XOOOOOOOOOO++++##+OX.      o=o..XOOOOOOOOOO++++##+OX.     ",
".X=XX.XOO..O..O..O..+..OX.      .X*XX.XOO..O..O..O..+..OX.      .X=XX.XOO..O..O..O..+..OX.      ",
" o=o..XXOOOOOOOOOOOO++OX.        o=o..XXOOOOOOOOOOOO++OX.        o=o..XXOOOOOOOOOOOO++OX.       ",
" o*o .XXXXXXXXXXXXXXOOX.         o=o .XXXXXXXXXXXXXXOOX.         o*o .XXXXXXXXXXXXXXOOX.        ",
"  o  .XX##$$$$$$$$#XXX.           o  .XX##$$$$$$$$#XXX.           o  .XX##$$$$$$$$#XXX.         ",
"      .+#$$$$$$&&&$#..                .+#$$$$$$&&&$#..                .+#$$$$$$&&&$#..          ",
"       .+#########+.                   .+#########+.                   .+#########+.            ",
"        ..........                      ..........                      ..........              ",
"                                                                                                ",
"             .....                           .....                           .....              ",
"           ..@***@..                       ..@***@..                       ..@***@..            ",
"          .*@====*@*.                     .*@====*@*.                     .*@====*@*.           ",
"         .*@=----=*@*.                   .*@=----=*@*.                   .*@=----=*@*.          ",
"        .*=*-:::--=*=*.                 .*=*-:::--=*=*.                 .*=*-:::--=*=*.         ",
"       .*=*=:::::--=@*@.               .*=*=:::::--=@*@.               .*=*=:::::--=@*@.        ",
"       .=-*-::::::-=@**.               .=-*-::::::-=@**.               .=-*-::::::-=@**.        ",
"      .*-:*-:::+::-=@=*@.             .*-:*-:::+::-=@=*@.             .*-:*-:::+::-=@=*@.       ",
"      .=::*-::+&+:-=@=**.             .=::*-::+&+:-=@=**.             .=::*-::+&+:-=@=**.       ",
"     .*-::*-::#&#--=@=**@.           .*-::*-::#&#--=@=**@.           .*-::*-::#&#--=@=**@.      ",
"     .*-::=-::#$#=-=*=**@.           .*-::=-::#$#=-=*=**@.           .*-::=-::#$#=-=*=**@.      ",
"     .*-::-=::+$+*-*==**@.           .*-::-=::+$+*-*==**@.           .*-::-=::+$+*-*==**@.      ",
"     .*-:::*::=#*=-*==**@.           .*-:::*::=#*=-*==**@.           .*-:::*::=#*=-*==**@.      ",
"     .*=:::-*:-==-*===**@.           .*=:::-*:-==-*===**@.           .*=:::-*:-==-*===**@.      ",
"     .*=-:::-*+++*===***@.           .*=-:::-*+++*===***@.           .*=-:::-*+++*===***@.      ",
"     .*=+#=-:+&&&+*=*#+*@.           .*=+#=-:+&&&+*=*#+*@.           .*=+#=-:+&&&+*=*#+*@.      ",
"      .+&$$*-#$$$#**$$&+.             .+&$$*-#$$$#**$$&+.             .+&$$*-#$$$#**$$&+.       ",
"      +&$$$$*#$+$#*$$$$&+             +&$$$$*#$+$#*$$$$&+             +&$$$$*#$+$#*$$$$&+       ",
"       ++++#@+#$#+@#++++               ++++#@+#$#+@#++++               ++++#@+#$#+@#++++        ",
"      ...@***@+++@***@...             ...@***@+++@***@...             ...@***@+++@***@...       ",
"     .+X+.@*@*****@*@.OX+.           .+X+.@*@*****@*@.OX+.           .+X+.@*@*****@*@.OX+.      ",
"     +#X+#..@@***@@..OOX++           +#X+#..@@***@@..OOX++           +#X+#..@@***@@..OOX++      ",
"    .#$XO+##.......OOOXX#+.         .#$XO+##.......OOOXX#+.         .#$XO+##.......OOOXX#+.     ",
"    .#$+O++++++++++OOOX+#+.         .#$+O++++++++++OOOX+#+.         .#$+O++++++++++OOOX+#+.     ",
"    .#&#OOX..o...o..XOX+#+.         .#&#OOX....o....XOX+#+.         .#&#OOX..o...o..XOX+#+.     ",
"    .+#$XO.Xo=@Xo=oX.XX##+.         .+#$XO.XXXo=oXXX.XX##+.         .+#$XO.Xo=@Xo=oX.XX##+.     ",
"     .+++.XOOo=@=@OXX.+++.           .+++.XOOoo=ooOXX.+++.           .+++.XOOo=@=@OXX.+++.      ",
"      ... .XOO@+@OXX. ...             ... .Xo==+==oX. ...             ... .XOO@+@OXX. ...       ",
"           ..@=@=o..                       ..oo=oo..                       ..@=@=o..            ",
"            o=o @=o                           o=o                           o=o @=o             ",
"             o   o                             o                             o   o              "
};
