/* XPM */
static char *_cffa0058a714f59f237b2c4164d346dpKv6BHHNMAToLT81[] = {
/* columns rows colors chars-per-pixel */
"30 30 159 2 ",
"   c None",
".  c #00331F",
"X  c #2F2315",
"o  c #0B042A",
"O  c #002C24",
"+  c #0C232E",
"@  c #0B2B2A",
"#  c #013423",
"$  c #033A25",
"%  c #00372C",
"&  c #003C29",
"*  c #153121",
"=  c #193D2B",
"-  c #0B3730",
";  c #053D30",
":  c #253625",
">  c #3E3124",
",  c #333529",
"<  c #363B2E",
"1  c #222D34",
"2  c #352B34",
"3  c #392C35",
"4  c #2E3335",
"5  c #323235",
"6  c #363539",
"7  c #32393A",
"8  c #403426",
"9  c #473927",
"0  c #493927",
"q  c #443629",
"w  c #473929",
"e  c #4A3B2C",
"r  c #4F3F32",
"t  c #064025",
"y  c #01442B",
"u  c #024B2C",
"i  c #0A4C2C",
"p  c #1D462B",
"a  c #02532D",
"s  c #0D552E",
"d  c #015A2D",
"f  c #0C5A2E",
"g  c #13542D",
"h  c #15592F",
"j  c #004234",
"k  c #124531",
"l  c #164936",
"z  c #005631",
"x  c #0C5431",
"c  c #035A30",
"v  c #0E5D31",
"b  c #135632",
"n  c #1E5731",
"m  c #135C31",
"M  c #1C5E31",
"N  c #21432F",
"B  c #2F4931",
"V  c #3C4631",
"C  c #354E35",
"Z  c #3A4B3B",
"A  c #2B5D33",
"S  c #355031",
"D  c #04602F",
"F  c #1B632F",
"G  c #036534",
"H  c #0D6333",
"J  c #016A34",
"K  c #156332",
"L  c #1A6432",
"P  c #126A34",
"I  c #1D6B34",
"U  c #106238",
"Y  c #196E39",
"T  c #1F7234",
"R  c #1D7B3A",
"E  c #226533",
"W  c #2B6433",
"Q  c #246B35",
"!  c #296E34",
"~  c #256C38",
"^  c #3D6037",
"/  c #316F35",
"(  c #237237",
")  c #2B7236",
"_  c #247338",
"`  c #2B7539",
"'  c #247A3A",
"]  c #2C7B39",
"[  c #317337",
"{  c #327A37",
"}  c #317638",
"|  c #3C7038",
" . c #327C3A",
".. c #397C3A",
"X. c #4F402E",
"o. c #4D4132",
"O. c #454B34",
"+. c #43453B",
"@. c #484D3E",
"#. c #544532",
"$. c #5C4C37",
"%. c #524E3F",
"&. c #5D4D3B",
"*. c #64533E",
"=. c #68563F",
"-. c #456138",
";. c #5B5C41",
":. c #655441",
">. c #6A5643",
",. c #645B47",
"<. c #6C5A43",
"1. c #6B5E4E",
"2. c #715F4A",
"3. c #746247",
"4. c #77634B",
"5. c #78664E",
"6. c #7B6751",
"7. c #7D6A50",
"8. c #826E53",
"9. c #897457",
"0. c #8C7758",
"q. c #2C813B",
"w. c #34833C",
"e. c #3B853C",
"r. c #37883D",
"t. c #3B8A3E",
"y. c #44853C",
"u. c #438C3E",
"i. c #4A8E3E",
"p. c #44903F",
"a. c #4A933F",
"s. c #559C3F",
"d. c #368941",
"f. c #3C8D41",
"g. c #3D9446",
"h. c #448F42",
"j. c #4A8E42",
"k. c #449342",
"l. c #4C9543",
"z. c #4D9A44",
"x. c #549C44",
"c. c #599D44",
"v. c #54A147",
"b. c #5CA245",
"n. c #5DA549",
"m. c #5CA94A",
"M. c #62A544",
"N. c #66AB45",
"B. c #6AAB46",
"V. c #63AB4B",
"C. c #69AD4C",
"Z. c #6CB24D",
"A. c #70B246",
"S. c #72B34C",
"D. c #6CB450",
"F. c #75B652",
"G. c #83BB47",
"H. c #84BF4C",
"J. c #88C24F",
/* pixels */
"                          I I c a                           ",
"                  _  .` w.x.N.l.d.d.` ~ `                   ",
"              ~ G l.A.B.r.` r.h.c.v.h.d.g.' &               ",
"            b g.V.c.B.V.v.V.x.k.F.c.` z s m G c             ",
"          h E j.F.c.B.B.B.G.B.d.B.Z.y.y u ( h.w.A           ",
"      l P ' j.D.r.q.e.w.e.l.) c J J j.B.c.G p.u.M y         ",
"    b _ ` Q ( ' r.N.S.x.R  .' y.c.a.s.B.A.M.y.s v T L       ",
"    L r.v.m...O P M.S.x.g.S.Z.M.J.J.B.p.p.b.i.f e.h.` a     ",
"  v Y ` r.] W %.1 ~ t.! E z.z. .c.s.u.e.~ u u M u.i.) #     ",
"  P f.C.C.} = ,.1.7 y a u k C y a c y g e.z._ u f v s g g   ",
"  Y _ l.v.f.s @.,.C _ ` b 3 =.A F M i M w.u.-.Z l y h I g   ",
"  i u a c i u % i _ I I ` ~ I u.m.t.G a O o 6 :.+.- L  .L   ",
"  y f f u y s ( Q y ) c.Z.Z.m.K E K d ` t.` U A W ( L m K   ",
"y ~ h.z.h.I ..b.C.u. .b.Z.n.i.m ~ y.l.m.C.v.v.k.q._ m u a   ",
"& w.l.h.) L ] p.c.V.e.K I H y Q V.V.c.t.I Q ~ M x i u u $   ",
"  u E ' h p S N h ) E a a p o.^ K a y $ & a d y y x I I g   ",
"  i  .r.! @ 2 2 + $ y L T M V N a T K k 4 , j & s H Q ` f   ",
"  I ~ K f f x | [ ) [  .e.a. .y u F K h W A j i K L s y t   ",
"  y u ) w.F h t.t.z.x.a.a.x... .w.Q u Q z.v. .L i.l.) #     ",
"    y L E y i K s M w.{ x y u } z.t.{ r.t.w.r.` p.t.L O     ",
"      # $ s I ' i y K ' I u . a D f ] t.{ u y a H H u       ",
"            t u $ $ s G f O.4.;.: * h P K i $ # #           ",
"                      . , >.9.8.*.9   $ #                   ",
"                        #.6.9.0.=.8                         ",
"                        X.4.9.7.*.0 X                       ",
"                    :.=.$.3.0.7.2.*.<.:.                    ",
"                #.=.<.<.<.3.4.<.4.4.*.#.&.&.q               ",
"                #.X.0 *.3.&.#.:.w >.<.#.r r >               ",
"                    9 #.#.w #.#.e > r $.$.                  ",
"                              X                             "
};
