/* XPM */
static char *_0d8b2424f204685c129cd96056c16beLk0smK8nCrBaLwWC[] = {
/* columns rows colors chars-per-pixel */
"30 30 136 2 ",
"   c #000001",
".  c #010601",
"X  c #030305",
"o  c #040405",
"O  c #020801",
"+  c #010B00",
"@  c #040E01",
"#  c #00000C",
"$  c #080809",
"%  c gray6",
"&  c #061101",
"*  c #081401",
"=  c #000013",
"-  c #000015",
";  c #0E0011",
":  c #140916",
">  c #101010",
",  c gray7",
"<  c #131313",
"1  c #101410",
"2  c #121511",
"3  c #151515",
"4  c #1A141B",
"5  c #181818",
"6  c #191919",
"7  c #1B1F1B",
"8  c gray12",
"9  c #122E01",
"0  c #003D00",
"q  c #143301",
"w  c #173A01",
"e  c #1B3213",
"r  c #1F3519",
"t  c #202021",
"y  c #282728",
"u  c #2E2F2E",
"i  c #313131",
"p  c #004900",
"a  c #194001",
"s  c #1C4601",
"d  c #1A4104",
"f  c #1D4901",
"g  c #1E4E00",
"h  c #1F4F01",
"j  c #005200",
"k  c #005400",
"l  c #235C00",
"z  c #255D02",
"x  c #26471A",
"c  c #29491F",
"v  c #006000",
"b  c #006800",
"n  c #1E7100",
"m  c #276300",
"M  c #286402",
"N  c #2A6902",
"B  c #2B6B02",
"V  c #2B6D00",
"C  c #2C6D02",
"Z  c #2A6A04",
"A  c #2B660E",
"S  c #2D6E0B",
"D  c #227000",
"F  c #2C7002",
"G  c #2E7402",
"H  c #2E7403",
"J  c #2F7602",
"K  c #307802",
"L  c #327E02",
"P  c #337F02",
"I  c #30770A",
"U  c #2E6715",
"Y  c #2E6C11",
"T  c #326E19",
"R  c #337614",
"E  c #37771B",
"W  c #35701D",
"Q  c #3D7C24",
"!  c #484848",
"~  c #50534F",
"^  c #555555",
"/  c gray36",
"(  c #5F5F5F",
")  c #537E46",
"_  c gray39",
"`  c #6A6C6A",
"'  c #6F6F6F",
"]  c #707071",
"[  c #727471",
"{  c gray47",
"}  c #7B7D7B",
"|  c #348102",
" . c #4D823B",
".. c #578648",
"X. c #709665",
"o. c #7D9F74",
"O. c #858685",
"+. c #8D8D8D",
"@. c gray56",
"#. c #849481",
"$. c gray57",
"%. c #969396",
"&. c gray59",
"*. c #9A9B9A",
"=. c #9D9D9C",
"-. c #9F9F9F",
";. c #8AA782",
":. c #93AE8C",
">. c #A4A4A4",
",. c gray68",
"<. c #A9BDA4",
"1. c gray69",
"2. c #B2B2B2",
"3. c gray73",
"4. c #B5C6B1",
"5. c #BCCDB8",
"6. c gray77",
"7. c #C5C5C5",
"8. c #C5CBC4",
"9. c #CBCBCB",
"0. c #C5D1C1",
"q. c #D0D0D0",
"w. c gray82",
"e. c #D2DCD0",
"r. c #D9D8D9",
"t. c #DDDDDD",
"y. c #E3E2E4",
"u. c #E5EDE4",
"i. c #EEEEEE",
"p. c gray94",
"a. c #F6F6F6",
"s. c #F7F8F7",
"d. c #F8F8F8",
"f. c #FBFCFB",
"g. c gray99",
"h. c white",
/* pixels */
"G G G G G G G G G G G G K G I b  .h.f.h.e.0 4.h.:.b E G G G ",
"G G G G G G G G G G G C C V S  .X.h.s.d.0.p <.h.;.k E G G G ",
"G G G G G G G G K G P 9     ; h.h.h.u.k n b b b D I G G G G ",
"G G G G G G G Z m U W e ;   1 h.d.y.8.j ) o...G R G G G G G ",
"G G G G G G | g =           % h.p.      %.h.5.v Q G G G G G ",
"G G G G G Z l c   [ *._ ^ 3   h.i.  u   ` r.#.p T G G G G G ",
"G G G G | l -     9.h.6.1.i   h.h.  6 <       - l | G G G G ",
"G G G C g x   } ,.t.h.$._ t   1.>.  <   < y 7   d g C G G G ",
"G G K m # :   1.h.f.h._   % o     <           +     M J G G ",
"G G G A   ^ { 7.h.a.h.'   <   t t               *   M G G J ",
"G G P Y   ( *.q.h.h.h.]   <                     &   B P G G ",
"G V 9 r   O.d.i.h.q.3.~   %                     .   9 9 C G ",
"K C   4   $.h.h.h.6.=.!   %                       .     C J ",
"G C   7   +.h.a.h.&.  t                             @   C J ",
"G C   7   +.h.a.h.+.  5 X                           @   C J ",
"K C   1   ( ,.-.,./   <                             +   C J ",
"G C   1   ^ -.$.-.^   <                             +   C H ",
"K C   + $           $                               @   C H ",
"G C   &   $ < < < $                                 *   C K ",
"K C     +                                         +     C J ",
"G C a w   +                                     +   w w G G ",
"G G P C   &                                     &   C P G G ",
"G G K M   *                                     *   M J G G ",
"G G K M     +                                 +     M J G G ",
"G G G C z f   &                             &   f z C J G G ",
"G G G G P z     +                         +     z | G G G G ",
"G G G G G C B s   * @               . @ &   s B C G G G G G ",
"G G G G G G P g                             g P G G G G G G ",
"G G G G G G G G C V C q   +     +   9 G B C C G G G G G G G ",
"G G G G G G G G G G P q   .     +   q P G G J G G G G G G G "
};
