/* XPM */
static char *_9d802d2e3e04e48d2f1d919d0ae7796unB03LFk4V63lm7N[] = {
/* columns rows colors chars-per-pixel */
"30 30 134 2 ",
"   c #000002",
".  c #000003",
"X  c #0B0B02",
"o  c #141503",
"O  c #161603",
"+  c #1B1C02",
"@  c #262703",
"#  c #272803",
"$  c #282903",
"%  c #2B2C03",
"&  c #323403",
"*  c #353703",
"=  c #363703",
"-  c #373903",
";  c #393B03",
":  c #3A3B03",
">  c #3B3D03",
",  c #3C3E03",
"<  c #3E4003",
"1  c #3F4103",
"2  c #404203",
"3  c #434503",
"4  c #474903",
"5  c #484A03",
"6  c #4A4D03",
"7  c #4C4E03",
"8  c #4A4B04",
"9  c #4D4F04",
"0  c #545603",
"q  c #505104",
"w  c #575A03",
"e  c #585B04",
"r  c #5E6103",
"t  c #5E6004",
"y  c #636703",
"u  c #606204",
"i  c #646604",
"p  c #666804",
"a  c #696D03",
"s  c #6A6E04",
"d  c #6D6F05",
"f  c #6B7003",
"g  c #6E7203",
"h  c #6E7303",
"j  c #727703",
"k  c #707305",
"l  c #737605",
"z  c #757705",
"x  c #757A03",
"c  c #777B03",
"v  c #757904",
"b  c #7A7F03",
"n  c #787C04",
"m  c #7A7F04",
"M  c #7C7F05",
"N  c #7B8003",
"B  c #7C8103",
"V  c #7F8303",
"C  c #7D8104",
"Z  c #7F8404",
"A  c #808404",
"S  c #848705",
"D  c #838804",
"F  c #858A04",
"G  c #878B04",
"H  c #878C04",
"J  c #888C04",
"K  c #8A8F04",
"L  c #8C8F06",
"P  c #8E9205",
"I  c #8C9006",
"U  c #8D9006",
"Y  c #8F9404",
"T  c #919605",
"R  c #949706",
"E  c #939804",
"W  c #969A05",
"Q  c #979C05",
"!  c #9A9F05",
"~  c #9A9D06",
"^  c #9FA306",
"/  c #A0A506",
"(  c #A1A507",
")  c #A3A707",
"_  c #A4A806",
"`  c #A4A906",
"'  c #A7AB07",
"]  c #ABAF06",
"[  c #ABB006",
"{  c #AEB207",
"}  c #AFB307",
"|  c #B0B407",
" . c #B8BD07",
".. c #B2B608",
"X. c #B3B808",
"o. c #B5B908",
"O. c #B5BA08",
"+. c #B7BB08",
"@. c #B7BC08",
"#. c #BBBF08",
"$. c #BCC108",
"%. c #BDC108",
"&. c #BEC208",
"*. c #BFC408",
"=. c #C0C408",
"-. c #C2C708",
";. c #C3C808",
":. c #C4C808",
">. c #C5C908",
",. c #C6CB08",
"<. c #C7CC08",
"1. c #C8CC08",
"2. c #C8CD08",
"3. c #CACE08",
"4. c #CACF08",
"5. c #CBD008",
"6. c #CDD209",
"7. c #CFD409",
"8. c #D1D509",
"9. c #D3D809",
"0. c #D5DA09",
"q. c #D7DC09",
"w. c #D9DE09",
"e. c #DADF09",
"r. c #DAE009",
"t. c #DBE009",
"y. c #DCE109",
"u. c #E1E609",
"i. c #E2E709",
"p. c #E3E809",
"a. c #E3E909",
"s. c #E7EC09",
"d. c #E9EE09",
"f. c #F1F70A",
/* pixels */
"m J 0.8.9.9.9.8.9.9.8.0.8.8.0.8.8.9.9.8.0.8.8.0.8.t.T V @   ",
"J T 5.,.-.,.;.,.-.,.-.,.,.,.-.,.,.,.,.-.-.,.;.<.;.<.Q H $   ",
"0.4.V g                                             +.i.;   ",
"8.,.g s * < , < , , , , , , , , , < 2 > 7 t e t ,   ..e.;   ",
"9.;.  * Y F J J J J J J H J J J F A A j _ i.e.f.F   X.e.;   ",
"8.,.  < F C A A Z C Z A A A D A D ) / ^ { 8...` i   +.y.;   ",
"9.-.  , H A A A A A Z m c c c j A t.0.0.0.d.J       ..y.=   ",
"9.,.  , H C A A A F Z _ { [ [ [ { 4.4.6.+.P d   m J &.e.;   ",
"8.-.  , J A A A D C a <.e.0.0.0.0.y.e.p.]       ` d.6.0.;   ",
"0.,.  , J A A F V ]  .<.7.6.6.8.,.l m C p   m ` #.4.6.0.;   ",
"9.,.  , H C A A s @.t.8.7.7.7.9.-.          L i.e.e.8.0.;   ",
"8.-.. , H D m ` -.,.6.6.7.6.6.8.6.X.#.+.+...&.e.L & #.e.;   ",
"0.,.  , J A h { t.0.0.8.7.0.0.8.8.q.q.q.0.0.8.s.c   +.e.*   ",
"8.,.  < A ! 7.,.e.A    .t.q & 7.8.6.7.6.6.e.R o =   +.y.;   ",
"8.-.  < Z / e.3.y.c   O.y.%   6.8.6.6.6.6.t.J   @   ..t.*   ",
"0.,.  2 C / 0.3.t.c   O.y.%   7.8.0.8.t./   o   y m &.e.;   ",
"8.,.  < A ^ 0.5.e.A . +.e.7 & 6.6.,.,.e.`   3 $ c F *.e.-   ",
"8.,.  2 Z ^ 0.6.6.e.i.0.0.t.y.e.4.  4 e.6.q.e.y.t.t.8.0.;   ",
"0.-.  < C ^ 0.6.0.=...+.+.+.+.@.{ 8 C e.5.6.-.{ +.} ,.e.;   ",
"8.,.  2 C ` i.6.y.t . . .         p.0.6.8.s.L       { t.-   ",
"8.>.  , F P / +.0.! k m c m v c D 8.4.6.&.` v   7 < @.e.;   ",
"0.>.  ; T t   P s.e.e.y.y.y.e.e.e.6.8.s._       s F &.e.-   ",
"9.>.  > I v 0 M P +.6.1.4.1.4.4.<.7.&.P v   5 e c c &.e.;   ",
"8.;.  , G C E 0   ` s.e.e.y.y.e.t.p.&.      w T F c &.e.;   ",
"8.;.  3 P C D N a v N n b m v m m C d . 8 s c F F m &.e.;   ",
"t.<.  + C c n c J +                     & J c j M f -.i.;   ",
"W W O.O.*.&.&.&.&.@.+.+.+.+.+.+.+.+.+...+.*.#.&.$.-.^ W %   ",
"b K i.e.e.e.e.e.t.t.t.e.t.t.e.y.t.y.t.t.t.e.t.e.0.i.W b #   ",
"@ $ ; * ; ; ; - > - - * ; * ; * ; & > ; ; ; ; ; - ; % @ X   ",
"                                                            "
};
