/* XPM */
static char *_1eb093080ca48bf9872b84589640061GZCeRdmG7fjxVMaq[] = {
/* columns rows colors chars-per-pixel */
"30 30 210 2 ",
"   c None",
".  c black",
"X  c #020100",
"o  c #050301",
"O  c #040003",
"+  c #050103",
"@  c #020700",
"#  c #070500",
"$  c #040600",
"%  c #060207",
"&  c #030900",
"*  c #040800",
"=  c #0B0C00",
"-  c #0B0F04",
";  c #00000B",
":  c #0D0509",
">  c #09070F",
",  c #0D060D",
"<  c #0E090C",
"1  c #0D0E0D",
"2  c #0F100B",
"3  c #0F100F",
"4  c #141700",
"5  c #151700",
"6  c #10100F",
"7  c #070211",
"8  c #030214",
"9  c #0B0812",
"0  c #0C0A10",
"q  c #0E0D11",
"w  c #0F0F13",
"e  c #0B0816",
"r  c #0E0B14",
"t  c #0F0B16",
"y  c #000019",
"u  c #00001F",
"i  c #090318",
"p  c #0F091A",
"a  c #100F11",
"s  c #110D17",
"d  c #100A18",
"f  c #110C18",
"g  c #150E19",
"h  c #140F1A",
"j  c #111110",
"k  c #111013",
"l  c #121112",
"z  c gray7",
"x  c #131312",
"c  c #131214",
"v  c #131216",
"b  c #151515",
"n  c #151516",
"m  c #161517",
"M  c #161616",
"N  c #161617",
"B  c #171617",
"V  c #191514",
"C  c #161618",
"Z  c #17161A",
"A  c #181419",
"S  c #181718",
"D  c #181719",
"F  c #18171B",
"G  c #18101F",
"H  c #18171C",
"J  c #18171D",
"K  c #181818",
"L  c #181819",
"P  c #191819",
"I  c #1A181A",
"U  c #1A191A",
"Y  c gray10",
"T  c #1A1A1B",
"R  c #1B1A1B",
"E  c #1B1B1B",
"W  c #19181C",
"Q  c #1A181D",
"!  c #1A191D",
"~  c #1B1B1C",
"^  c #1C1B1C",
"/  c #1D1B1E",
"(  c gray11",
")  c #1C1C1D",
"_  c #1D1C1D",
"`  c #1D1D1D",
"'  c #1C1C1E",
"]  c #1D1C1E",
"[  c #1D1D1E",
"{  c #1D1D1F",
"}  c #1E1C1E",
"|  c #1E1E1E",
" . c #1E1E1F",
".. c #1F1E1F",
"X. c #1E1F1F",
"o. c gray12",
"O. c #201F15",
"+. c #212018",
"@. c #25241C",
"#. c #000022",
"$. c #0B0224",
"%. c #130A23",
"&. c #150A28",
"*. c #1C1320",
"=. c #191420",
"-. c #1D1B21",
";. c #1C1B22",
":. c #1F1A22",
">. c #1E1E20",
",. c #1F1F20",
"<. c #1F1F21",
"1. c #1F1C25",
"2. c #201E20",
"3. c #271B32",
"4. c #1F2020",
"5. c #202020",
"6. c #202021",
"7. c gray13",
"8. c #202022",
"9. c #212122",
"0. c #212123",
"q. c #222022",
"w. c #232123",
"e. c #222222",
"r. c #232323",
"t. c #222224",
"y. c #232324",
"u. c #232325",
"i. c gray14",
"p. c #242425",
"a. c #252525",
"s. c #242426",
"d. c #262426",
"f. c #272527",
"g. c gray15",
"h. c #262627",
"j. c #272727",
"k. c #262628",
"l. c #272728",
"z. c #292729",
"x. c #282828",
"c. c #28282A",
"v. c #29292B",
"b. c #2B292B",
"n. c #2A2A2A",
"m. c #2B2A2B",
"M. c gray17",
"N. c #2A2A2C",
"B. c #2C2C2C",
"V. c #120241",
"C. c #180053",
"Z. c #190053",
"A. c #250D4C",
"S. c #2A1A4C",
"D. c #23005C",
"F. c #2C1158",
"G. c #311D53",
"H. c #351F5A",
"J. c #260462",
"K. c #2B026B",
"L. c #300F62",
"P. c #300C6D",
"I. c #34146E",
"U. c #3C107B",
"Y. c #3E1479",
"T. c #3B2962",
"R. c #3D2469",
"E. c #41216F",
"W. c #4F3667",
"Q. c #54337C",
"!. c #574278",
"~. c #60457E",
"^. c #3B0A84",
"/. c #3B088A",
"(. c #3F1980",
"). c #401480",
"_. c #451D81",
"`. c #421788",
"'. c #52189D",
"]. c #472882",
"[. c #502C85",
"{. c #513681",
"}. c #573D83",
"|. c #583A8C",
" X c #502390",
".X c #58269E",
"XX c #5219A0",
"oX c #604191",
"OX c #715094",
"+X c #77569E",
"@X c #6640A3",
"#X c #744CAD",
"$X c #651CCA",
"%X c #7124D9",
"&X c #845CBB",
"*X c #876AB0",
"=X c #8863BD",
"-X c #8D67BE",
";X c #9A7BBA",
":X c #9C72D0",
">X c #A87BE0",
",X c #9C8AB6",
"<X c #B48FD8",
"1X c #B793DD",
"2X c #AEA0C3",
"3X c #B688EB",
"4X c #B98BEE",
"5X c #BF91F4",
"6X c #C5B0DB",
"7X c #CABBDC",
/* pixels */
"                                                            ",
"                                                            ",
"                                                            ",
"                  M.  B.B.n.n.N.N.                          ",
"                      d.f.f.p.i.c.s.s.                      ",
"                  f.f.6.X.>.4.4.2.O.y.d.X.X.                ",
"            f.i.6.4.X.X.>.>.X.' X.X.X.X.X.X.M               ",
"            f.6.4.>.X.X.T Q Z Z H D T / X.2.X.(             ",
"          k.6.2.>.X.T M 1 = @.O.o l M T ( X.4.Q             ",
"        f.f.6.X.X.T l h *.u . . &.h d 3 T ( >.>.Q 2.n.      ",
"        d.y.6.X.T v d . . ;X7X6XOX. . d 6 T ( 1.T X.N.      ",
"      f.f.X.>./ D * . ~.T.Q.2X,XD.!.W.. s M E O.X.X.N.      ",
"      M.p.X.X.-.- 3.; +X1X}.. . *X<XE.y =.1 T / O.>.z.      ",
"      n.>.4.X.2.. H.:X@X).G.+.>.R.^.&X-X. A D X.-.y.k.      ",
"      k.6.f.X.Q V . =X5X>X[.. . #X3X4XoX. =.V X.X.f.6.      ",
"    n.f.p.6.X.Q k # #.].{.$.% . S.|.P.. < q D / X.6.>.      ",
"        y.6.X.Q k o %.`.'.L.. i ).XXI.o 7 l T ' >.>.6.      ",
"        6.6.X.X.V r . A..XF.. . _. X8 O 1 Z T X.>.-.y.      ",
"          6.X.X.T x 9 . . K.Y.U.Z.. + 9 l T X.X.O.y.        ",
"          w.>.X.X.Q k p < /.%X$XJ., e l T T / X.6.X.        ",
"          f.X.O.>./ T M 2 @ C.V.& a M T T X.>.2.X.          ",
"            1.>.>.>./ T T H 4 4 J T T / X.X.6.T             ",
"            6.X./ @.X.X.X./ ;.-./ X.X.>.X.X.X.              ",
"                X.6.6.2.X.X.>.X.X.X.1.>.O.f.                ",
"                      6.z.6.6.>.X.>.n.f.n.n.n.m.            ",
"                            y.f.d.d.f.                      ",
"                                                            ",
"                                                            ",
"                                                            ",
"                                                            "
};
