/* XPM */
static char *c29e8093e71b49f3d733b850c3949f6aKOafYF64aNCRkGPd[] = {
/* columns rows colors chars-per-pixel */
"30 30 201 2 ",
"   c None",
".  c black",
"X  c #19000F",
"o  c #000018",
"O  c #1B1103",
"+  c #220006",
"@  c #3C0C0D",
"#  c #2D1D00",
"$  c #201003",
"%  c #341B00",
"&  c #3C1506",
"*  c #350615",
"=  c #3E141B",
"-  c #322106",
";  c #3D2B1C",
":  c #240023",
">  c #290826",
",  c #380029",
"<  c #3C1C23",
"1  c #37182A",
"2  c #2C0037",
"3  c #360039",
"4  c #3A003A",
"5  c #3D173D",
"6  c #362923",
"7  c #3D252B",
"8  c #3C292D",
"9  c #3F2122",
"0  c #3B2B33",
"q  c #3E2B39",
"w  c #430911",
"e  c #421B11",
"r  c #471718",
"t  c #5A1506",
"y  c #5B2502",
"u  c #5B2A1B",
"i  c #653D00",
"p  c #672612",
"a  c #400022",
"s  c #510129",
"d  c #411D25",
"f  c #491C28",
"g  c #541E29",
"h  c #591E36",
"j  c #422C24",
"k  c #43242D",
"l  c #4A232E",
"z  c #472728",
"x  c #592728",
"c  c #58382B",
"v  c #452431",
"b  c #4A2331",
"n  c #432A34",
"m  c #4B2B35",
"M  c #4C2E39",
"N  c #44283C",
"B  c #55243C",
"V  c #59233A",
"C  c #4D343C",
"Z  c #49333D",
"A  c #58373B",
"S  c #632D2C",
"D  c #693824",
"F  c #663F2C",
"G  c #683527",
"H  c #733D2B",
"J  c #713723",
"K  c #673A3A",
"L  c #773435",
"P  c #704300",
"I  c #6E5302",
"U  c #684A17",
"Y  c #6A591A",
"T  c #775A1B",
"R  c #6F4D09",
"E  c #796100",
"W  c #5A4337",
"Q  c #6B4A2C",
"!  c #66452B",
"~  c #78462D",
"^  c #77562C",
"/  c #6D4635",
"(  c #784635",
")  c #0E0045",
"_  c #1A0044",
"`  c #6D1D42",
"'  c #432B41",
"]  c #4E2D41",
"[  c #532D43",
"{  c #5A2648",
"}  c #4C3341",
"|  c #4A3541",
" . c #553443",
".. c #543A46",
"X. c #52354A",
"o. c #59344C",
"O. c #543B4A",
"+. c #5B3F49",
"@. c #513350",
"#. c #532C58",
"$. c #682B44",
"%. c #682C57",
"&. c #6A2C63",
"*. c #722F63",
"=. c #783165",
"-. c #7A3572",
";. c #5D4046",
":. c #5F4151",
">. c #684B4F",
",. c #63524F",
"<. c #78554B",
"1. c #75514B",
"2. c #624554",
"3. c #624659",
"4. c #6B4B5C",
"5. c #664959",
"6. c #724850",
"7. c #6C4F62",
"8. c #6B5063",
"9. c #7E6270",
"0. c #805F06",
"q. c #825916",
"w. c #8C6701",
"e. c #946C01",
"r. c #8E7105",
"t. c #977301",
"y. c #A57900",
"u. c #A57D06",
"i. c #87482F",
"p. c #805F2A",
"a. c #884B35",
"s. c #914F34",
"d. c #8C513B",
"f. c #8F5035",
"g. c #92543B",
"h. c #98593E",
"j. c #886725",
"k. c #8A6833",
"l. c #8D3E7E",
"z. c #895647",
"x. c #9A5B40",
"c. c #985D4C",
"v. c #955C46",
"b. c #93624D",
"n. c #9D614A",
"m. c #9B6653",
"M. c #96635D",
"N. c #9D6958",
"B. c #A7654A",
"V. c #B06B4E",
"C. c #A56B55",
"Z. c #A46D5C",
"A. c #A66B58",
"S. c #AB715B",
"D. c #A7705C",
"F. c #B5765E",
"G. c #9C6B61",
"H. c #AE7865",
"J. c #AF7A68",
"K. c #BD7D64",
"L. c #9F861A",
"P. c #A38301",
"I. c #AD8C00",
"U. c #A68706",
"Y. c #AE9900",
"T. c #B99701",
"R. c #B69A01",
"E. c #AA9117",
"W. c #AE8D18",
"Q. c #BCA301",
"!. c #BEA800",
"~. c #9B8328",
"^. c #978431",
"/. c #A28A25",
"(. c #B39127",
"). c #C5AE00",
"_. c #CCB303",
"`. c #DEC400",
"'. c #E0C200",
"]. c #E5C900",
"[. c #EAD000",
"{. c #FDF420",
"}. c #958245",
"|. c #BB816B",
" X c #BB8572",
".X c #D1957E",
"XX c #CB937E",
"oX c #954389",
"OX c #9B4A95",
"+X c #9F4C9A",
"@X c #A34D9B",
"#X c #A84EA4",
"$X c #AD53AB",
"%X c #A951A4",
"&X c #B255AC",
"*X c #B559AF",
"=X c #B95AB4",
"-X c #B558B2",
";X c #CC9986",
":X c #D49E8A",
">X c #DE81DC",
/* pixels */
"                                                            ",
"                                                            ",
"                                                            ",
"                                                            ",
"                                                            ",
"                I.            E           P I.              ",
"              ].              !.            e.[.            ",
"            U.w.  w.      Y.0.{.P Y.      w.  e.u.          ",
"          C 5 X   U._.    r.x }.z t.    _.P.  X N C         ",
"        } ..C 9     ).'.U 2 O.#...2 Y `.!.    9 } O.C       ",
"      k C M | Z n   , (.^ 0 -.>X&.q k.(.,   n N | m C k     ",
"      n { B 7 v ..6 / ` , 0 &.#X%.n , ` F 7 ..n 7 { { 8     ",
"    k 8 =.[ b f k ..C / r Y Y . Y T r / |  .d v k { =.7 v   ",
"    k m oX .b b 2.9.5.N 9 W C @.C c 1 | 5.9.5.b l o.oXk 8   ",
"    6 *.$Xm <  .4.4.5.;.r G j.c j.S z +.5.5.4. .= B &X%.8   ",
"  k - oX-X@ M | ] G.:XXXf.p q.^ q.p s.;X;XM.] | n f =Xl.- v ",
"  n & %X$XA :.<.H.f.m.|..XC.n.G.n.D..XK.m.g.H.1.3.A -X@X% n ",
"  8 f *X%X,.8.G.C.x t K.:X.Xi.+ f..X:XF.t x A.m.8.,.$X$Xr n ",
"  7 V =X@X; +. XS.s $.H s.x.D.b.S.h.f.H V s F. XX.9 %X*XV 7 ",
"w 0 V =XOX# N S.n.* $.. B.g.D.|.Z.v.x.. $.* B.C.N # +X*Xg 0 ",
"w 0 h =XOXO q l m : 4 n z.K.a.z.d.K.z.n 3 > m v q $ @X-Xh 0 ",
"w N = @X+X# :.2.6.<.^.o.o a.h.J v.a.o 2.^.<.6.5.:.# #X+X* n ",
"  <     *.X.@.6.L l E.k.D.V.g.C.d.V.G.k.E.f L >.@.O.=.    = ",
"  @       Q ^ Q L.' M.m.J.G i.n.~ H J.b.M.M L.! ^ Q       @ ",
"          y.R.i y.W n.i.y D J ~ D G y i.n.! P.P Y.t.        ",
"            r 1 : j W h.x r u G u r S x.A j : 1 =           ",
"    k m A +.K K , 3 ) _ Q I e u r I Q ) _ 3 a K A K A m k   ",
"    d v L ( H W.R.L.~.k.T y.      I.U k././.T.W.~ ( K v d   ",
"              t.T.I.'.w.              e.'.I.T.e.            ",
"                                                            "
};
