/* XPM */
static char *_8b5daed47af410b8a6e78c8760fd58fwlGDXLnosjWxJcm6[] = {
/* columns rows colors chars-per-pixel */
"30 30 161 2 ",
"   c None",
".  c #000E00",
"X  c #2F1A1E",
"o  c #193400",
"O  c #3C292F",
"+  c #383A39",
"@  c #4E3F00",
"#  c #473E18",
"$  c #423E15",
"%  c #4A421D",
"&  c #494217",
"*  c #54471A",
"=  c #4E482E",
"-  c #45472D",
";  c #534721",
":  c #554922",
">  c #594C24",
",  c #5D4E2A",
"<  c #45483D",
"1  c #584F35",
"2  c #534B37",
"3  c #64522A",
"4  c #6F5632",
"5  c #785D36",
"6  c #0C3746",
"7  c #0D3846",
"8  c #0D3B4B",
"9  c #013C4E",
"0  c #1A3B48",
"q  c #0C3F51",
"w  c #2B3D46",
"e  c #0F4659",
"r  c #0F4457",
"t  c #10475B",
"y  c #10495E",
"u  c #1C4A5D",
"i  c #3C4445",
"p  c #284451",
"a  c #0D4E66",
"s  c #114D62",
"d  c #00536E",
"f  c #13546C",
"g  c #135972",
"h  c #155D78",
"j  c #204D61",
"k  c #15617D",
"l  c #444343",
"z  c #40494F",
"x  c #4B4B4B",
"c  c #55484F",
"v  c #574E55",
"b  c #4B5558",
"n  c #545454",
"m  c #5B5A5A",
"M  c #79594B",
"N  c #7E6340",
"B  c #73615B",
"V  c #5D5E61",
"C  c #5E6266",
"Z  c #646464",
"A  c #6A6A6A",
"S  c #686767",
"D  c #716C6D",
"F  c #767676",
"G  c #787877",
"H  c #747778",
"J  c #7A7A7A",
"K  c #83613D",
"L  c #895D49",
"P  c #946946",
"I  c #996E4A",
"U  c #916A4A",
"Y  c #956851",
"T  c #9A7953",
"R  c #A3714E",
"E  c #AD7A57",
"W  c #A57C5C",
"Q  c #A87553",
"!  c #B67E5B",
"~  c #B07A63",
"^  c #A78157",
"/  c #AC8260",
"(  c #B58F69",
")  c #C28462",
"_  c #CB8566",
"`  c #CD896B",
"'  c #C98864",
"]  c #D58C6B",
"[  c #D9916F",
"{  c #D59070",
"}  c #DB9371",
"|  c #DD9A76",
" . c #D5957E",
".. c #E29E7A",
"X. c #E5A37E",
"o. c #166582",
"O. c #166886",
"+. c #176A88",
"@. c #186E8D",
"#. c #1A7394",
"$. c #1B7A9D",
"%. c #1A7799",
"&. c #7C7D82",
"*. c #1D82A6",
"=. c #1E87AD",
"-. c #1E88AE",
";. c #1F8AB1",
":. c #838383",
">. c #8D878A",
",. c #8C8C8C",
"<. c #8C8F93",
"1. c #939393",
"2. c #989999",
"3. c #93999D",
"4. c #B9A190",
"5. c #B0AE9D",
"6. c #9B9DA1",
"7. c #9EA0A2",
"8. c #ACACAC",
"9. c #ABAEB2",
"0. c #B3B3B2",
"q. c #BCB8B1",
"w. c #DEAD84",
"e. c #CBAB91",
"r. c #C8B79B",
"t. c #E7B48A",
"y. c #E9B48B",
"u. c #E7B98F",
"i. c #ECB98F",
"p. c #EEBD93",
"a. c #E4B690",
"s. c #C5B8AF",
"d. c #EFC194",
"f. c #E4C799",
"g. c #F3C294",
"h. c #F5CA9B",
"j. c #CCC8BB",
"k. c #F6CEA0",
"l. c #FBCEA0",
"z. c #EED4A7",
"x. c #FBD3A4",
"c. c #F4D8A7",
"v. c #FCDDAB",
"b. c #F1D6AB",
"n. c #F4D7B9",
"m. c #FFE1AE",
"M. c #FFE3B1",
"N. c #D6D7DC",
"B. c #E8E1CE",
"V. c #FFECC4",
"C. c #FFEFCA",
"Z. c #FBE6C2",
"A. c #F4EDD8",
"S. c #FFF1D2",
"D. c #FFF5DD",
"F. c #FFF8DA",
"G. c #D8EBF6",
"H. c #FFF7E1",
"J. c #FFF9E4",
"K. c #FFFBEA",
"L. c #F2F2F4",
/* pixels */
"                                                            ",
"                    ; ; ; ; ; ; : *                         ",
"                > > I I ` } } ) I P % ;                     ",
"              4 Q [ [ i.d.p.p.p.t.] ` I >                   ",
"            5 E | p.v.M.m.m.M.x.p.d.i.] R 3                 ",
"            P ..h.M.m.D.H.J.V.m.x.i.p.p.} B                 ",
"        $ 5 ! } } p.p.v.m.M.k.p.d.d.i.{ 0.:.V               ",
"        o R X.h.M.M.D.H.H.H.H.H.S.b.9.0.1.1.:.C             ",
"        o Q } | d.p.p.v.J.q.7.0.0.8.1.0.0.2.1.H             ",
"        . ( x.b.<.0.<.A.J.V.r.6.8.>.J 1.0.2.3.:.A x         ",
"        . ( x.x.` <.0.<.z.F.j.&.A @ 1 J <.&.<.&.A x         ",
"        . ( x.x._ C Z H Z B.j.i T l.c.# <.T &.&.A x         ",
"        . ( x.x. .N.X G.Z.F.5.^ w.( c.# G J J A             ",
"        . ( x.v.a.>.O L.K.J.n.l.f.E p.% G J Z               ",
"        l H 6.s.t.n c A.F.J.C.d.] ) - J J m p               ",
"        l J 2.2.q.p.m.D.J.V.r.4.g.y.` F n j a t             ",
"        x A J &.2.0.G 8.q.3.e.g.t._ U b s 8 y t             ",
"            A T J J G <.:.b ~ ' K & = a o.f q 8             ",
"            C <.0.<.J m b 2 * * < d @.;.=.;.h s t 6         ",
"              A 1.F n 0 e h $.;.=.=.*.s =.-.#.f e 6         ",
"              A J n   6 t o.o.%.;.*.h 8 s o.o.g e 6         ",
"                n       6 t h +.+.o.u l 0 a s t             ",
"                        V >.D + l l z +.f 8 8 8 8 8         ",
"                        6 t s g %.=.=.=.o.o.f q 8 8         ",
"                        8 s g %.=.=.-.=.-.@.f r             ",
"                          q 9 w x m m l : 0 r               ",
"                                4 Y W L M ,                 ",
"                                L ^ W L M ,                 ",
"                                  > ; ; :                   ",
"                                                            "
};
