/* XPM */
static char *_4dc0ced0bc44f3ffe4f5d23a37a69989t8sb79PbmyfWUKp[] = {
/* columns rows colors chars-per-pixel */
"34 34 4 1 ",
"  c #000001",
". c #2E7402",
"X c #FC6A5D",
"o c white",
/* pixels */
"...........                       ",
"...........                       ",
"...........            ...........",
"...........            ...........",
".......      XXXXXXXX      .......",
".......      XXXXXXXX      .......",
".....    XXXXXXXXXXXXXXXX    .....",
".....    XXXXXXXXXXXXXXXX    .....",
"...    XXXXXXXXXXXXXXXXXXXX    ...",
"...    XXXXXXXXXXXXXXXXXXXX    ...",
"...  XXXXXXXXXXXXXXXXXXXXXXXX  ...",
"...  XXXXXXXXXXXXXXXXXXXXXXXX  ...",
".    XXXXXXooooXXXXooooXXXXXX    .",
".    XXXXXXooooXXXXooooXXXXXX    .",
".  XXXXXXXX  ooXXXX  ooXXXXXXXX  .",
".  XXXXXXXX  ooXXXX  ooXXXXXXXX  .",
".  XXXXXXXX  ooXXXX  ooXXXXXXXX  .",
".  XXXXXXXX  ooXXXX  ooXXXXXXXX  .",
".  XXXXXXXXXXXXXXXXXXXXXXXXXXXX  .",
".  XXXXXXXXXXXXXXXXXXXXXXXXXXXX  .",
".  XXXXXXXXXXXXXXXXXXXXXXXXXXXX  .",
".  XXXXXXXXXXXXXXXXXXXXXXXXXXXX  .",
".    XXXX    oo  oo      XXXX    .",
".    XXXX    oo  oo      XXXX    .",
"...  XXXX                XXXX  ...",
"...  XXXX                XXXX  ...",
"...    XXXX            XXXX    ...",
"...    XXXX            XXXX    ...",
".....    XXXXXXXXXXXXXXXX    .....",
".....    XXXXXXXXXXXXXXXX    .....",
".......      XXXXXXXX      .......",
".......      XXXXXXXX      .......",
"...........            ...........",
"...........            ..........."
};
