/* XPM */
static char *_d8f9eeb85034dddcf6a10c05a6b65e4a5w7bSWulHUoTmky[] = {
/* columns rows colors chars-per-pixel */
"96 128 16 1 ",
"  c None",
". c #0B0601",
"X c #4E2800",
"o c #703A00",
"O c #403D3D",
"+ c #5D4A07",
"@ c #76450E",
"# c #7E660F",
"$ c gray50",
"% c #9D771F",
"& c #A67848",
"* c #C29F29",
"= c #B18962",
"- c #D4A878",
"; c #A9A9A9",
": c #D7D2CF",
/* pixels */
"               .                           OO  .  OO                           .                ",
"              .%.                         O$;O.%.O;$O                         .%.               ",
"              .o.                          O$;OoO;$O                          .o.               ",
"          O;;$.;.OOOO                       O;$;$;O                       O;;$.;.OOOO           ",
"         O::::$$$::::O                       O:$:O                       O::::$$$::::O          ",
"          OOOO;:O;;;O                       O:;O;:O                       OOOO;:O;;;O           ",
"              ;.O                          O:;O.O;:O                          ;.O               ",
"              .%.                         O:OO.%.OO:O                         .%.               ",
"              .o.                          O$;OoO;$O                          .o.               ",
"           O;$.;.OOO                        O$$;$$O                        O;$.;.OOO            ",
"          O:::$$$:::O                      ..O:$:O..                      O:::$$$:::O           ",
"          .OOO;:O;;O.                     .=O:;O;:O&.                     .OOO;:O;;O.           ",
"         .=.XX;:O@@X&.                   .=O:;OXO;:O&.                   .=.XX;:O@@X&.          ",
"        .-.+++O:O+++X=.                 .-.+OO.o.OO+X=.                 .-.+++O:O+++X=.         ",
"        .-X+##.O.###X=.                 .-X+#O.o.O##X=.                 .-X+##.O.###X=.         ",
"        .:+#O$.;.OO%#-.                 .:+#O;O;O;O%#-.                 .:+#O$.;.OO%#-.         ",
"        @:.O::$$$::O.-@                 @:.XXO:$:OXX.-@                 @:.O::$$$::O.-@         ",
"       .-..XOO;:O;OX.X=.               .-..XO:;O;:OX.X=.               .-..XOO;:O;OX.X=.        ",
"       .-.+++.O:O.+++X=.               .-.++O;OXO;O++X=.               .-.+++.O:O.+++X=.        ",
"       .-X+##..O..###X=.               .-X+##O.;.O###X=.               .-X+##..O..###X=.        ",
"      ..-X+##.$;$.%%#X=..             ..-X+##.$;$.%%#X=..             ..-X+##.$;$.%%#X=..       ",
"     .+.-X+##.::;.%%#X=.+.           .+.-X+##.::;.%%#X=.+.           .+.-X+##.::;.%%#X=.+.      ",
"     +%.@-X+#.;$$.%#X=X.%+           +%.@-X+#.;$$.%#X=X.%+           +%.@-X+#.;$$.%#X=X.%+      ",
"    .%*+.%-X+#+++##X=X.+%+.         .%*+.%-X+#+++##X=X.+%+.         .%*+.%-X+#+++##X=X.+%+.     ",
"    .%-%.@%-::#%%:-=XX.+%+.         .%-%.@%-::#%%:-=XX.+%+.         .%-%.@%-::#%%:-=XX.+%+.     ",
"    .+%*..@%%$;:;$XXX..%++.         .+%*..@%%$;:;$XXX..%++.         .+%*..@%%$;:;$XXX..%++.     ",
"     .+++.X@%%$:$.XX..+++.           .+++.X@%%$:$.XX..+++.           .+++.X@%%$:$.XX..+++.      ",
"      .....X@@@;..X......             .....X@@@;..X......             .....X@@@;..X......       ",
"          ..XXX......                     ..XXX......                     ..XXX......           ",
"           .........                       .........                       .........            ",
"             .....                           .....                           .....              ",
"                                                                                                ",
"                   .                           OO  .  OO                           .            ",
"                  .%.                         O$;O.%.O;$O                         .%.           ",
"                  .o.                          O$;OoO;$O                          .o.           ",
"          .   O;;$.;.OOOO                 .     O;$;$;O                   .   O;;$.;.OOOO       ",
"         .%. O::::$$$::::O             OO.%.OO   O:$:O                   .%. O::::$$$::::O      ",
"         .o.  OOOO;:O;;;O             O$;OoO;$O O:;O;:O                  .o.  OOOO;:O;;;O       ",
"      O;$.;.OOO   ;:O                  O$$;$$O O:;OXO;:O              O;$.;.OOO   ;:O           ",
"     O:::$$$:::O  ;:O                   O:$:O O:;O.o.O;:O            O:::$$$:::O  ;:O           ",
"      OOO;:O;;O   O:O                  O:;O;:O O$;OoO;$O              OOO;:O;;O   O:O           ",
"         ;:O   O;$.$.OOO              O:;OXO;:O O$$;$$O                  ;:O   O;$.$.OOO        ",
"         O:O  O:::$$$:::O              OO.o.OO   O:$:O                   O:O  O:::$$$:::O       ",
"         .O.   OOO;:O;;O                O.o.O   O:;O;:O                  .O.   OOO;:O;;O        ",
"       O$.;.OO    ;:O                  O;O;O;O O:;OXO;:O               O$.;.OO    ;:O           ",
"      O::$$$::O   O:O  .....            O:$:O   OO.o.OO.....          O::$$$::O   O:O  .....    ",
"       OO;:O;O    .O. .-&&&&.          O:;O;:O    .o. .-&&&&.          OO;:O;O    .O. .-&&&&.   ",
"         O:O.......o..-XXXX.&.         O;OXO;O.....o..-XXXX.&.           O:O.......o..-XXXX.&.  ",
"       ...O.&&&&&&.;.-X+++++=.         .O.;.O&&&&&.;.-X+++++=.         ...O.&&&&&&.;.-X+++++=.  ",
"      .=.$;$.XXXX.$;$.+*####=.        .=.$;$.XXXX.$;$.+*####=.        .=.$;$.XXXX.$;$.+*####=.  ",
" .....=..::;.++++.::;.+*%%%#-.   .....=..::;.++++.::;.+*%%%#-.   .....=..::;.++++.::;.+*%%%#-.  ",
".;:::-.+.;$$.+###.;$$.+*%%%%-.  .;:::-.+.;$$.+###.;$$.+*%%%%-.  .;:::-.+.;$$.+###.;$$.+*%%%%-.  ",
" ..$;@-++++++#####+++#+:----..   ..$;@-++++++#####+++#+:----..   ..$;@-++++++#####+++#+:----..  ",
"    .@%--##%%%%%%%%%%%:%@@XX..      .@%--##%%%%%%%%%%%:%@@XX..      .@%--##%%%%%%%%%%%:%@@XX..  ",
"    .X@%%------------:%@XXX..O      .X@%%------------:%@XXX..O      .X@%%------------:%@XXX..O  ",
"     .X@%%%%%@@@@@@@@@@XXX..O;O      .X@%%%%%@@@@@@@@@@XXX..O:O      .X@%%%%%@@@@@@@@@@XXX..O;O ",
"     ..X@%%@@@@XXXXXXXXXX...O:O      ..X@%%@@@@XXXXXXXXXX...O:O      ..X@%%@@@@XXXXXXXXXX...O:O ",
"      ..X..@..X..X..X..XX....:..      ..X..@..X..X..X..XX....;..      ..X..@..X..X..X..XX....:..",
"       ..X@@XXXXXXXXXXXX....O:O        ..X@@XXXXXXXXXXXX....O:O        ..X@@XXXXXXXXXXXX....O:O ",
"        ..XX............... O;O         ..XX............... O:O         ..XX............... O;O ",
"         ....%********%%...  O           ....%********%%...  O           ....%********%%...  O  ",
"          ..%*---******%+.                ..%*---******%+.                ..%*---******%+.      ",
"            .+%%%%%%%%%+.                   .+%%%%%%%%%+.                   .+%%%%%%%%%+.       ",
"              ..........                      ..........                      ..........        ",
"            .                           OO  .  OO                           .                   ",
"           .%.                         O$;O.%.O;$O                         .%.                  ",
"           .o.                          O$;OoO;$O                          .o.                  ",
"       OOOO.;.$;;O   .                   O;$;$;O     .                 OOOO.;.$;;O   .          ",
"      O::::$$$::::O .%.                   O:$:O   OO.%.OO             O::::$$$::::O .%.         ",
"       O;;;O:;OOOO  .o.                  O:;O;:O O$;OoO;$O             O;;;O:;OOOO  .o.         ",
"           O:;   OOO.;.$;O              O:;OXO;:O O$$;$$O                  O:;   OOO.;.$;O      ",
"           O:;  O:::$$$:::O            O:;O.o.O;:O O:$:O                   O:;  O:::$$$:::O     ",
"           O:O   O;;O:;OOO              O$;OoO;$O O:;O;:O                  O:O   O;;O:;OOO      ",
"        OOO.$.$;O   O:;                  O$$;$$O O:;OXO;:O              OOO.$.$;O   O:;         ",
"       O:::$$$:::O  O:O                   O:$:O   OO.o.OO              O:::$$$:::O  O:O         ",
"        O;;O:;OOO   .O.                  O:;O;:O   O.o.O                O;;O:;OOO   .O.         ",
"           O:;    OO.;.$O               O:;OXO;:O O;O;O;O                  O:;    OO.;.$O       ",
"    .....  O:O   O::$$$::O          .....OO.o.OO   O:$:O            .....  O:O   O::$$$::O      ",
"   .&&&&-. .O.    O;O:;OO          .&&&&-. .o.    O:;O;:O          .&&&&-. .O.    O;O:;OO       ",
"  .&.XXXX-..o.......O:O           .&.XXXX-..o.....O;OXO;O         .&.XXXX-..o.......O:O         ",
"  .=+++++X-.;.&&&&&&.O...         .=+++++X-.;.&&&&&O.;.O.         .=+++++X-.;.&&&&&&.O...       ",
"  .=####*+.$;$.XXXX.$;$.=.        .=####*+.$;$.XXXX.$;$.=.        .=####*+.$;$.XXXX.$;$.=.      ",
"  .-#%%%*+.;::.++++.;::..=.....   .-#%%%*+.;::.++++.;::..=.....   .-#%%%*+.;::.++++.;::..=..... ",
"  .-%%%%*+.$$;.###+.$$;.+.-:::;.  .-%%%%*+.$$;.###+.$$;.+.-:::;.  .-%%%%*+.$$;.###+.$$;.+.-:::;.",
"  ..----:+#+++#####++++++-@;$..   ..----:+#+++#####++++++-@;$..   ..----:+#+++#####++++++-@;$.. ",
"  ..XX@@%:%%%%%%%%%%%##--%@.      ..XX@@%:%%%%%%%%%%%##--%@.      ..XX@@%:%%%%%%%%%%%##--%@.    ",
"  O..XXX@%:------------%%@X.      O..XXX@%:------------%%@X.      O..XXX@%:------------%%@X.    ",
" O;O..XXX@@@@@@@@@@%%%%%@X.      O:O..XXX@@@@@@@@@@%%%%%@X.      O;O..XXX@@@@@@@@@@%%%%%@X.     ",
" O:O...XXXXXXXXXX@@@@%%@X..      O:O...XXXXXXXXXX@@@@%%@X..      O:O...XXXXXXXXXX@@@@%%@X..     ",
"..:....XX..X..X..X..@..X..      ..;....XX..X..X..X..@..X..      ..:....XX..X..X..X..@..X..      ",
" O:O....XXXXXXXXXXXX@@X..        O:O....XXXXXXXXXXXX@@X..        O:O....XXXXXXXXXXXX@@X..       ",
" O;O ...............XX..         O:O ...............XX..         O;O ...............XX..        ",
"  O  ...%%********%....           O  ...%%********%....           O  ...%%********%....         ",
"      .+%******---*%..                .+%******---*%..                .+%******---*%..          ",
"       .+%%%%%%%%%+.                   .+%%%%%%%%%+.                   .+%%%%%%%%%+.            ",
"        ..........                      ..........                      ..........              ",
"               .                           OO  .  OO                           .                ",
"              .%.                         O$;O.%.O;$O                         .%.               ",
"              .o.                          O$;OoO;$O                          .o.               ",
"          O;;$.;.OOOO                       O;$;$;O                       O;;$.;.OOOO           ",
"         O::::$$$::::O                     O$O:$:O$O                     O::::$$$::::O          ",
"          OOOO;:O;;;O                       O:;O;:O                       OOOO;:O;;;O           ",
"          O:::;:O:::O                      O:;OXO;:O                      O:::;:O:::O           ",
"           OOO;:O;;O                      O:;O.o.O;:O                      OOO;:O;;O            ",
"              O:O                          O$;OoO;$O                          O:O               ",
"           O;$.$.OOO                        O$$;$$O                        O;$.$.OOO            ",
"          O:::$$$:::O                        O:$:O                        O:::$$$:::O           ",
"           OOO;:O;;O                        O:;O;:O                        OOO;:O;;O            ",
"           O::;:O::O                       O:;OXO;:O                       O::;:O::O            ",
"          .-OOO:O;O&.                     .-OO.o.OO&.                     .-OOO:O;O&.           ",
"         .-.+#.O.##@=.                   .-.O;.o.;O@=.                   .-.+#.O.##@=.          ",
"         .&X+#.o.%#X=.                   .&X+O.o.O#X=.                   .&X+#.o.%#X=.          ",
"        .-.+#..;..%#@=.                 .-.+#..;..%#@=.                 .-.+#..;..%#@=.         ",
"        .:X+#.$;$.%%X=.                 .:X+#.$;$.%%X=.                 .:X+#.$;$.%%X=.         ",
"       .-.+++.::;.++#X=.               .-.+++.::;.++#X=.               .-.+++.::;.++#X=.        ",
"       .-.+#%*******#X=.               .-.+#%*******#X=.               .-.+#%*******#X=.        ",
"      ..%:+#%%%%%%%%#=@..             ..%:+#%%%%%%%%#=@..             ..%:+#%%%%%%%%#=@..       ",
"     .+.@%:------====@X.+.           .+.@%:------====@X.+.           .+.@%:------====@X.+.      ",
"     +%.@%%%%%%%%%@@@XX.++           +%.@%%%%%%%%%@@@XX.++           +%.@%%%%%%%%%@@@XX.++      ",
"    .%*.X@%%%%%%@@@XXX..%+.         .%*.X@%%%%%%@@@XXX..%+.         .%*.X@%%%%%%@@@XXX..%+.     ",
"    .%*+X@@@@@@@@@@XXX.+%+.         .%*+X@@@@@@@@@@XXX.+%+.         .%*+X@@@@@@@@@@XXX.+%+.     ",
"    .%-%XX...O...O...X.+%+.         .%-%XX.....O.....X.+%+.         .%-%XX...O...O...X.+%+.     ",
"    .+%*.X..O:$.O:O....%%+.         .+%*.X....O:O......%%+.         .+%*.X..O:$.O:O....%%+.     ",
"     .+++..XXO:$:$X...+++.           .+++..XXOO:OOX...+++.           .+++..XXO:$:$X...+++.      ",
"      ... ..XX$@$X... ...             ... ..O::@::O.. ...             ... ..XX$@$X... ...       ",
"           ..$:$:O..                       ..OO:OO..                       ..$:$:O..            ",
"            O:O $:O                           O:O                           O:O $:O             ",
"             O   O                             O                             O   O              "
};
