/* XPM */
static char *_9a9fdbd60db4c35b77c758a9207856478MyOvhB6tGZGAjJ[] = {
/* columns rows colors chars-per-pixel */
"30 30 25 1 ",
"  c black",
". c #040404",
"X c #0E0E0E",
"o c #111111",
"O c #151515",
"+ c gray13",
"@ c #252525",
"# c #2A2A2A",
"$ c gray18",
"% c #464646",
"& c #484848",
"* c #898989",
"= c gray57",
"- c #959595",
"; c #979797",
": c #9B9B9B",
"> c #9F9F9F",
", c #A0A0A0",
"< c #A7A7A7",
"1 c #A9A9A9",
"2 c gray68",
"3 c gray94",
"4 c #F6F6F6",
"5 c gray98",
"6 c white",
/* pixels */
";<66666666666666666666666666& ",
">265555565555565555565555556% ",
"65=:;:;;;;:;;:;::;:;::;;;:;># ",
"64;,>>>>>>>>>:>>:>>>:>>>>>>,$ ",
"64=>>>:>:>:>:>:>>:>:>:>:>:>,# ",
"64;>>:>:>:>:>:>::>:>:>:>:>:<$ ",
"65;>:>:>:>:>:>:>>:>:>:>:>::,# ",
"64;>>:>:>:>:>:>::>:>:>:>:>:,$ ",
"64=>:>:>:>:>:>:>>:>:>:>:>:>,$ ",
"64;>>:>:>:>:>:>::>:>:>:>:>>,# ",
"64;>:>:>:>:>:>:>>:>:>:>:>::,$ ",
"65;>>:>:>:>:>:>::>:>:>:>:>>,$ ",
"64;>:>:>:>:>:>:>>:>:>:>:>::,# ",
"64;>>:>:>:>:>:>::>:>:>:>:>>,$ ",
"64;>:>:>:>:>:>:>>:>:>:>:>:>,# ",
"64;>>:>:>:>:>:>::>:>:>:>:>>,$ ",
"64=>>>:>>:>:>:>:>:>:>:>::>:,$ ",
"64;>>:>::>:>:>:>:>:>:>:>>::,$ ",
"65;>:>:>>:>:>:>:>:>:>:>::>:<# ",
"64;>>:>::>:>:>:>:>:>:>:>>:>,$ ",
"64;>:>:>>:>:>:>:>:>:>:>::>:,$ ",
"64;>>:>::>:>:>:>:>:>:>:>>::,# ",
"64=>:>:>>:>:>:>:>:>:>:>::>>,$ ",
"65;>>:>::>:>:>:>:>:>:>:>>>:,$ ",
"64;>>:>>::>::>::>>:>:>::>>:,# ",
"64;>:>::>::>:>>:::::>>:>::>,$ ",
"64:>,,<,,,>,,<,,,,,,,,,,,,:,$ ",
"63 $@@@@@@@@@@@@@@@@@@#@$ *<# ",
"63 X                    . *1# ",
"++ .   .. . . .  . . . .. oO. "
};
