/* XPM */
static char *result[] = {
/* columns rows colors chars-per-pixel */
"30 30 162 2 ",
"   c #000201",
".  c #020B03",
"X  c #07020D",
"o  c #0A060D",
"O  c #070D0B",
"+  c #0A0B0C",
"@  c #031205",
"#  c #061609",
"$  c #0A130D",
"%  c #071A0B",
"&  c #091C0C",
"*  c #000010",
"=  c #120515",
"-  c #120A15",
";  c #100019",
":  c #190C1C",
">  c #0C1C12",
",  c #131215",
"<  c #181F17",
"1  c #19101C",
"2  c #151A1B",
"3  c #002700",
"4  c #0B210F",
"5  c #0D2313",
"6  c #0D2914",
"7  c #0F2E19",
"8  c #102516",
"9  c #112A17",
"0  c #18201E",
"q  c #122D19",
"w  c #182F1F",
"e  c #14331B",
"r  c #16391E",
"t  c #183B1E",
"y  c #180027",
"u  c #1B0C21",
"i  c #1E1221",
"p  c #28022D",
"a  c #280F2C",
"s  c #261E28",
"d  c #2C0133",
"f  c #2D003D",
"g  c #300837",
"h  c #34003F",
"j  c #36093C",
"k  c #2B1431",
"l  c #1F2026",
"z  c #163720",
"x  c #173C21",
"c  c #1A3D22",
"v  c #222226",
"b  c #232029",
"n  c #174022",
"m  c #1B4325",
"M  c #1E4926",
"N  c #1C4628",
"B  c #1E4929",
"V  c #204827",
"C  c #224B2B",
"Z  c #23522E",
"A  c #28532F",
"S  c #26592F",
"D  c #255331",
"F  c #295531",
"G  c #265A33",
"H  c #2A5B34",
"J  c #2B5D39",
"K  c #2C6336",
"L  c #27623B",
"P  c #2C633A",
"I  c #2D6B3D",
"U  c #306134",
"Y  c #30673D",
"T  c #326B3D",
"R  c #36723F",
"E  c #350040",
"W  c #3B0147",
"Q  c #3F0C45",
"!  c #3A1043",
"~  c #41004A",
"^  c #42164B",
"/  c #4A0452",
"(  c #52015C",
")  c #540C5C",
"_  c #52295A",
"`  c #5A0067",
"'  c #5B1062",
"]  c #63006D",
"[  c #660071",
"{  c #6F007C",
"}  c #671374",
"|  c #72177C",
" . c #6B2B71",
".. c #762B7C",
"X. c #6B3474",
"o. c #2A6A40",
"O. c #306740",
"+. c #336C41",
"@. c #2F7846",
"#. c #347443",
"$. c #397642",
"%. c #357A45",
"&. c #3A7C45",
"*. c #3B7748",
"=. c #357B4A",
"-. c #3B7D4B",
";. c #3A8046",
":. c #36824C",
">. c #3C844C",
",. c #36884F",
"<. c #3D8A4E",
"1. c #378452",
"2. c #3E8451",
"3. c #3D8B53",
"4. c #3F9052",
"5. c #41844D",
"6. c #428A4E",
"7. c #41914F",
"8. c #448551",
"9. c #428C53",
"0. c #4A8A56",
"q. c #448E58",
"w. c #449255",
"e. c #499356",
"r. c #4C9857",
"t. c #469158",
"y. c #4B9359",
"u. c #4D9859",
"i. c #770083",
"p. c #771981",
"a. c #791883",
"s. c #8C1399",
"d. c #823888",
"f. c #8F269A",
"g. c #913598",
"h. c #9900A8",
"j. c #9F1BAD",
"k. c #9B38A4",
"l. c #9E3AA8",
"z. c #A92EB5",
"x. c #854A8A",
"c. c #9D4AA4",
"v. c #9E56A6",
"b. c #AE4BB5",
"n. c #B555BB",
"m. c #B432C1",
"M. c #BE6EC2",
"N. c #C658CC",
"B. c #C441D2",
"V. c #CE54DB",
"C. c #CB6CCF",
"Z. c #CF6ED3",
"A. c #D37BD6",
"S. c #DE68E6",
"D. c #E575EB",
"F. c #EA7DEF",
"G. c #C480C9",
"H. c #CF9CD2",
"J. c #F483F8",
"K. c #DFACE3",
"L. c #E1B3E4",
"P. c #FFA2FF",
/* pixels */
"9.7.7.6.:.3.3.q.8.8.2.=.1.+.T ;.%.%.R >.9.:.0.y.q.2.,.t.w.4.",
"<.y.u.9.3.9.9.4.>.*.8.5.#.P F U +.#.=.#.9.%.9.r.0.w.w.w.w.w.",
"w.r.r.9.y.3.9.q.-.P L o.S A A A F K -.K %.-.=.2.=.:.,.9.t.q.",
"3.9.9.8.9.=.#.>.5.P H D n m x x N F D C P &.T *.-.-.<.<.4.e.",
"u.9.:.>.6.=.P J J C C t e e e q e e e n Z J F P o.5.<.w.6.6.",
",.,.>.>.-.#.J F V m r 6 9 6 8 4 8 9 9 e x m D J O.%.:.<.<.9.",
"3.t.6.&.$.J D M x e 9 9 & % & & % % 4 9 e t m D K R ;.>.,.9.",
"t.w.>.T T H V z 9 6 % # # - + . - $ # & 8 q r m F P $.9.9.3.",
">.&.&.T G D c q 9 & @ . o   & < .   O @ % 8 e m C D #.t.w.t.",
"w.>.#.P H N r 6 & % + : o ! *   E i = - . > q r V F &.3.5.6.",
"t.6.R I D c e 6 # . . .   v.K.L.G.h .   O @ > q m Z I #.>.2.",
"6.6.>.K N x 7 > # - u ^   ~ H.L.x.  h k = . & q z D J #.6.9.",
">.r.5.J B x 9 % 2   . n.A.d.    ( M.Z.W   1 @ 5 z M G -.q.9.",
">.&.T F m e 5 0   _  .[ C.c.@ 3  .Z.g.( X.  , 8 e c F :.-.9.",
"3.#.#.#.M q 5 v   ..D.n.{ E : = d ` c.D.n.  s 6 r A =.#.#.;.",
"r.3.-.R Z e 9 , > y N.P.J.k.  . } S.P.F.] . i & 7 Z I P 5.6.",
"@.1.%.F C e 6 # = . W l.b.'   o d k.b.[   = . 5 e m F P :.w.",
"e.5.T H C r 6 & +   a ` f   ; X X X ` Q . X . 8 r V K T %.<.",
"3.&.T H A x 6 & - o   f.m.a.  . ) z.z.Q   = O 6 z C G #.>.:.",
"9.<.#.K D x q 6 # o   ; | )     d p.Q   = . 8 q x D +.9.t.6.",
"9.7.-.T J B r q > . o X   ~ Q j /     =   $ 4 e M P >.9.t.9.",
"6.6.R R I F n 7 9 $ + ; - i.B.V.h.g = X $ & e m F L I =.w.9.",
"5.e.t.q.%.J V r q 9 $ +   p s.j.(   o $ > 6 t C J T $.:.6.w.",
"e.u.u.y.>.K F N z 7 6 # # @ .   . + % 5 7 z m A G P &.3.3.9.",
"3.>.6.5.#.L J F V c e 6 5 > l b 2 5 9 e x V F P P +.>.3.<.w.",
"t.3.2.>.;.#.P J F B N c e w e e q x r N V D J #.=.5.3.w.6.;.",
",.3.3.t.q.>.#.+.P J #.Z n Z Z m F V A #.o.Y +.2.8.:.3.4.w.<.",
"3.t.e.w.e.2.-.%.=.T 5.#.F =.P H >.J H >.t.>.@.9.w.w.r.4.3.w.",
"r.r.e.w.r.6.2.:.2.-.#.2.#.+.5.$.-.>.R &.3.8.2.9.>.9.w.t.t.3.",
",.<.6.w.3.9.9.3.r.9.#.=.y.&.#.&.$.6.-.:.t.3.w.t.:.>.q.r.w.t."
};
