/* XPM */
static char *_47d7f27c2054e48d88a618ae5a47999WiaPxAcjj1gBU4Am[] = {
/* columns rows colors chars-per-pixel */
"30 30 47 1 ",
"  c #34864E",
". c #3C864D",
"X c #3C8A4E",
"o c #3E904F",
"O c #3D8652",
"+ c #3D8C54",
"@ c #3C8E58",
"# c #3F9054",
"$ c #418C4D",
"% c #43914F",
"& c #418654",
"* c #428D54",
"= c #488E57",
"- c #448E59",
"; c #4B8F59",
": c #429155",
"> c #409056",
", c #449354",
"< c #459255",
"1 c #439457",
"2 c #469554",
"3 c #479556",
"4 c #489151",
"5 c #489057",
"6 c #489455",
"7 c #489754",
"8 c #489657",
"9 c #4D9757",
"0 c #489855",
"q c #4C9855",
"w c #439159",
"e c #449259",
"r c #46915A",
"t c #479458",
"y c #499058",
"u c #4B9259",
"i c #4D9359",
"p c #4E925A",
"a c #499459",
"s c #48945B",
"d c #4B975B",
"f c #49945C",
"g c #4C995A",
"h c #4F995C",
"j c #52975B",
"k c #509958",
"l c #539A5C",
/* pixels */
"*%%X.>#>ip<@@<4%oXX+1>ii*+@#1>",
"$uht@t>>aq<agO+;h3*t8+iqpgtr14",
"3q9aat3r*#+Oo888k5aa1<*@+Xo>**",
"+**<*+@85ar-:>***8@@+aaur*:+#8",
"h>X+4*e-*O*82gg>O$4>r-*++8#,%$",
" +*<r*1>>rr>+%X++5r>*<*rr>++4<",
"#a83ar>3*>800>8533ar>0+*87q<+1",
"g0<>0aar****<<a813qa>r@***2<>+",
"X.*>1>+>a3O+u,X.$<@#>>94+O<r3<",
"24**3#e>*3e*p344*<51>**8r*f3r4",
"*q04*3a4&**#**<8q*<33*&*4+#1<-",
"$$4> >>>kjurf<$$>+X+3+klrrr>4:",
"*klffut@+4>>3+*9kaaga+>*##>>>*",
"4<8a<@#a*r+OX0828<r#>p<-*O%*-a",
"e***<++p8>ru><r*O5>*e<,<r<++*$",
"3:O*,e#r*++#3g8+O*<>>-*++2:34$",
" +*ip8r3*ra3>:OO+gar33*rqa@@#3",
"gg8,qr#1*+>30>lg0>ar@0@++3q4+o",
"+X%*3ar>-<*&5**X><88-e*<*Oet<*",
">$$*>@+>9<+*94%$.2*+@*q8+*rt88",
"500r533*.*<>p,,8g*u3>*.*3#ta<*",
"=2:$X2>*pu*@+*=,%$+#7:u5-++#<*",
".5aa+31>8kiag+X<g3@45+kkag882>",
"3kgatt3<+>+X$<3gkrag>-*++X$>**",
"+*4,e+@33u-**1#*>8*O+g8urO*+#3",
"g>++4>-e*+>>3gg*O*>>er*X#8#3*$",
"XO+=r>><*rr*#<X++=8>><--r>+#3<",
"#<82aet3*>80a#<<8538<3@*800>+<",
"gg4:qrr3****4*ug,4qa>8*+**8=,+",
" .4<#8>+a>X+upXX*,>>rr3*X**<<*"
};
