/* XPM */
static char *result[] = {
/* columns rows colors chars-per-pixel */
"30 30 226 2 ",
"   c #1F0513",
".  c #342F1A",
"X  c #031234",
"o  c #192C38",
"O  c #34312D",
"+  c #5A2700",
"@  c #4A3204",
"#  c #563200",
"$  c #6C3E00",
"%  c #7F3400",
"&  c #324232",
"*  c #356C3D",
"=  c #494E17",
"-  c #714F0E",
";  c #5C4031",
":  c #674526",
">  c #000A48",
",  c #00194D",
"<  c #001555",
"1  c #06294E",
"2  c #182A4D",
"3  c #03324E",
"4  c #1C324C",
"5  c #002C55",
"6  c #1B2C52",
"7  c #152B5A",
"8  c #1E325B",
"9  c #2B314B",
"0  c #253A4C",
"q  c #343647",
"w  c #253758",
"e  c #041A65",
"r  c #000E7E",
"t  c #00286A",
"y  c #1B2E64",
"u  c #01377D",
"i  c #1A3971",
"p  c #25376A",
"a  c #22396A",
"s  c #3B396B",
"d  c #243F75",
"f  c #3E3E70",
"g  c #443940",
"h  c #433B61",
"j  c #195452",
"k  c #23454A",
"l  c #29594A",
"z  c #294C52",
"x  c #3B4353",
"c  c #2A5353",
"v  c #31664B",
"b  c #337949",
"n  c #366A52",
"m  c #3A7C55",
"M  c #0A406E",
"N  c #294568",
"B  c #2A457E",
"V  c #344A70",
"C  c #364C7A",
"Z  c #2E6F73",
"A  c #4E464E",
"S  c #524A47",
"D  c #405942",
"F  c #575654",
"G  c #6B524C",
"H  c #665555",
"J  c #516F44",
"K  c #535A63",
"L  c #43477A",
"P  c #725A70",
"I  c #4F676F",
"U  c #526478",
"Y  c #7A6768",
"T  c #73716C",
"R  c #78787A",
"E  c #835E53",
"W  c #886958",
"Q  c #906758",
"!  c #876E71",
"~  c #916E73",
"^  c #B77C6C",
"/  c #AA7573",
"(  c #3B874E",
")  c #3A894D",
"_  c #3D8454",
"`  c #3D8D54",
"'  c #3C895A",
"]  c #3F9053",
"[  c #3B8972",
"{  c #418C4D",
"}  c #43924F",
"|  c #428D54",
" . c #4A8D57",
".. c #438E59",
"X. c #449255",
"o. c #499556",
"O. c #4A9857",
"+. c #459158",
"@. c #4A945A",
"#. c #4D995A",
"$. c #52955B",
"%. c #B38059",
"&. c #D8915E",
"*. c #C78E60",
"=. c #D8976B",
"-. c #C98973",
";. c #E59C72",
":. c #DCB276",
">. c #E1AB76",
",. c #EAB17C",
"<. c #00008A",
"1. c #002A87",
"2. c #073B84",
"3. c #1B3A8C",
"4. c #03418A",
"5. c #004499",
"6. c #164693",
"7. c #294785",
"8. c #29498A",
"9. c #29499A",
"0. c #354D92",
"q. c #365596",
"w. c #377290",
"e. c #004DA9",
"r. c #094DB9",
"t. c #2B44A4",
"y. c #3649A7",
"u. c #2856AA",
"i. c #365BA7",
"p. c #2E4FB7",
"a. c #1B68B0",
"s. c #3A66A8",
"d. c #3373AD",
"f. c #2A6DB0",
"g. c #3668B8",
"h. c #3171B4",
"j. c #4B578B",
"k. c #595085",
"l. c #605F9D",
"z. c #486498",
"x. c #56719C",
"c. c #7D7E89",
"v. c #6D7D91",
"b. c #4A67A7",
"n. c #4264AB",
"m. c #5775AB",
"M. c #456AB9",
"N. c #4B6EB8",
"B. c #4B7BB3",
"V. c #5275BB",
"C. c #657AB1",
"Z. c #376FC5",
"A. c #426EC2",
"S. c #4A74C2",
"D. c #587AC4",
"F. c #617FC4",
"G. c #3A878F",
"H. c #4C888A",
"J. c #7F828E",
"K. c #5683AB",
"L. c #5383BA",
"P. c #6A8AAE",
"I. c #7884AE",
"U. c #668CB7",
"Y. c #7792BF",
"T. c #0289D6",
"R. c #508CC7",
"E. c #5888CC",
"W. c #468CDE",
"Q. c #6887C9",
"!. c #728CC8",
"~. c #6194C3",
"^. c #6494CE",
"/. c #7B97CB",
"(. c #6587D1",
"). c #6997D1",
"_. c #7C98D7",
"`. c #968B8D",
"'. c #848A90",
"]. c #A88F8F",
"[. c #BFA480",
"{. c #8A93AC",
"}. c #8794B1",
"|. c #A6A6A8",
" X c #A6AAB7",
".X c #AEB0B9",
"XX c #C49F88",
"oX c #C6A48B",
"OX c #D6A981",
"+X c #EAB489",
"@X c #DDC396",
"#X c #F4C59D",
"$X c #F7CA98",
"%X c #F9D09D",
"&X c #F1CFAE",
"*X c #FCDAB2",
"=X c #FFE1AC",
"-X c #FFE7B8",
";X c #8688C3",
":X c #829CCC",
">X c #859ED7",
",X c #8DA6CE",
"<X c #8BA6DB",
"1X c #AEB6CD",
"2X c #8CAAE2",
"3X c #8EB5E4",
"4X c #A1B7E3",
"5X c #9EC0EA",
"6X c #A7C4E8",
"7X c #B5CCE8",
"8X c #BFD4EA",
"9X c #BAD2F2",
"0X c #CDCED3",
"qX c #F9E8C8",
"wX c #FEE3D1",
"eX c #FFF6DB",
"rX c #FFF9DE",
"tX c #D8DEE9",
"yX c #CFE2FA",
"uX c #D8E6FA",
"iX c #E3E5EC",
"pX c #FFFAE7",
"aX c #FFFBE8",
"sX c #EFF3F7",
"dX c #F4F6F7",
"fX c #FDFDFC",
/* pixels */
"| } } { ( X.] X.c 2 8 7 l |  .l y 8 6 k  ._  . ._ ' ' X.o.] ",
"( @.#.o.' _ _ m ] & q.n.7.2 1 q.M.9.t 7 8 6 4 w z #.+.+.X.X.",
"o.O.#.@.@.c 6 p 7.< , b.S.n.n.D.n.C x.S.M.8.X X b b } | ] ..",
"` | | | | b o 7 6.C.z.u n.(.(.i.b.>X>XS.n.8.C.q.8.a n ` ] O.",
"#.| _ ` * a 7.z.b.!.2XQ.M.N.M.u.F.>XA.t.z.}.<Xn.7.N v ] X.) ",
") ` ' v d a 0.g.M.Z.;X(.(.S.Q._.g.A.>X_.M.>X9.b.i 8 v ) X.o.",
"] +.c 8 a p 1./.F.D.A.>X!.!.4X>XC.{.N.<X!.e.n.N.D.u.a l ` ] ",
"@.O.m _ o 6.:X<XD.t.:X<Xi.!.4Xu.`.0XI.(.1X,X2Xs.q.B i.B 0 ` ",
"( ( { k p D.F.q.u.4.Q.A.}.;XA.}.iXdX.X2.<X.XD.2Xt d p 8 | | ",
"o.X.| 2 i.g.2.V.a. XI.1.1X1X<.0XfXfXsX1XC.|.2.Q.4.i.o  ...X.",
" .o.4 i.7.L Q.M.3.-.P ~ +X].~ +X#X+X>./ P -.6.i.L 8.i.4 | ..",
"{ } 6 4 > &.;X5.-.~ 5 N XX$X%X-X=XoXt 5 ! ;.-.k.=.< 7.4 X.| ",
"| $.z o.1 ^ l.M :.iXv. X&X%X*X=X%X&X Xv.iX,./ j.^ , k 6 +.| ",
"X.} o.+.9 u 4.Q >.dX|.; OX*XqXqX*XOX; |.dX>.E u u 0 { z ` o.",
"+.| | | 2 0.i # =.wX[.% @XrXpXpXrX@X- -.wX=.$ 1 0.2 ] ` | } ",
"O.] _ | n N u P.W *.>.:.qXaXeXeXaXqX:.>.&.E d.M 9 * ] X.X.| ",
") ) X.o. .X ^.E.~.Y %.#X-XeXaXaXeX-X#X^ G ,XyXR.d.G.] ` ] @.",
"#.#.o.} D c..X4X^.<XI + *.#X=X=X#X*.+ I 7XuX6X0X{.C w.O.] ] ",
"` X.{ X.O .X0X0XJ.tXsX0Xc.$ - - $ c.0XsXiX`.{.|.T x h.o.+.` ",
"` ) | d.w ! $.R S f _.uXdX6XT.T.6XdXyX_.V . F F A H q d.X.o.",
"o.o.@.h.q Y `.R A e r 1.9.r.W.W.r.9.1.r t O q g G S x h.+.| ",
"| X.X.h.q ! E `.H g s d t.p.E.E.p.y.d s S N g.g.F j.3Xf.X.| ",
"{  .@.h.  P ! ! # y L k.k.Y '.'.P k.k.L p @ x S.2X5X7Xa.o.X.",
"X.#.@.f.v.. : : z.F s 3.t.m.~.~.m.y.y.h F w.q f.B.8X7Xa...| ",
"` | X.w.).}.x.M d.L.B.K.U.~.U I E.P.P.U.L.s.s.Z.^.9X<Xw.` O.",
"#.| ( ] 5.9XyX3Xz.s.B.K.~.K L V U :X/.Y.K.C [ G.H.<XZ ] X.{ ",
") ` ] X.[ E.fX6XH.n # # + = [ I G W W - & [ ....] Z ) ` X.X.",
"] X.o.X.@.m /.H.' +.' _ m ' ` J Y ! ! T & o.' | O.] O.] ` X.",
"#.O.X.X.O.X.m +.` | | X.X.X.o.@.@.@.$. ._ @.' | X.] X.o.| ` ",
") { | | X.+.+.` c 6 6 2 n o._ v 2 3 3 j +...o.X.) ' X.o.X.X."
};
