/* XPM */
static char *result[] = {
/* columns rows colors chars-per-pixel */
"30 30 222 2 ",
"   c #200000",
".  c #362609",
"X  c #37321F",
"o  c #1A2437",
"O  c #1F3F34",
"+  c #242A2B",
"@  c #2B2636",
"#  c #393839",
"$  c #412B02",
"%  c #473902",
"&  c #423731",
"*  c #4D3F3A",
"=  c #6A3334",
"-  c #3D4D1B",
";  c #396532",
":  c #5A4C1B",
">  c #604129",
",  c #755038",
"<  c #406B33",
"1  c #00164D",
"2  c #000557",
"3  c #16284B",
"4  c #1D384B",
"5  c #112B54",
"6  c #1A2C52",
"7  c #192E5A",
"8  c #3F3F4B",
"9  c #273C53",
"0  c #000078",
"q  c #082B61",
"w  c #1C3466",
"e  c #003276",
"r  c #1B3974",
"t  c #243965",
"y  c #233B6C",
"u  c #263B76",
"i  c #443745",
"p  c #1C444E",
"a  c #24484B",
"s  c #374544",
"d  c #365247",
"f  c #284453",
"g  c #3F4353",
"h  c #2A5953",
"j  c #305A50",
"k  c #3A6747",
"l  c #36734F",
"z  c #3B4863",
"x  c #294976",
"c  c #334874",
"v  c #3D5370",
"b  c #266971",
"n  c #4E474E",
"m  c #534241",
"M  c #5A5259",
"N  c #6D5449",
"B  c #6A5658",
"V  c #715A5D",
"C  c #427447",
"Z  c #67605A",
"A  c #4F4F6B",
"S  c #675968",
"D  c #655B78",
"F  c #6E6A60",
"G  c #776377",
"H  c #797071",
"J  c #914F00",
"K  c #8F5300",
"L  c #9D7200",
"P  c #AF6900",
"I  c #A37200",
"U  c #AD5C24",
"Y  c #A37029",
"T  c #84685E",
"R  c #B16F4A",
"E  c #875E73",
"W  c #866767",
"Q  c #897A7A",
"!  c #A27075",
"~  c #C07D53",
"^  c #32864E",
"/  c #3C864D",
"(  c #3C894D",
")  c #3A8654",
"_  c #3D8C53",
"`  c #3F9053",
"'  c #418C4D",
"]  c #41914F",
"[  c #438553",
"{  c #428D54",
"}  c #438D5A",
"|  c #449255",
" . c #499556",
".. c #4B9957",
"X. c #459258",
"o. c #4A9459",
"O. c #4D995B",
"+. c #539B5D",
"@. c #B8846A",
"#. c #C98759",
"$. c #D19468",
"%. c #DBB277",
"&. c #E8A878",
"*. c #EBB27B",
"=. c #00008D",
"-. c #003A89",
";. c #003A9B",
":. c #0000B7",
">. c #003EA7",
",. c #134589",
"<. c #004C98",
"1. c #095992",
"2. c #284786",
"3. c #354982",
"4. c #294897",
"5. c #304F91",
"6. c #2D5198",
"7. c #355798",
"8. c #14608F",
"9. c #08659B",
"0. c #146F90",
"q. c #337F8F",
"w. c #256E9E",
"e. c #0055AE",
"r. c #1550AF",
"t. c #2854A8",
"y. c #3759A4",
"u. c #355CAC",
"i. c #2C54B4",
"p. c #006EB9",
"a. c #3763A8",
"s. c #2875A9",
"d. c #3C63B4",
"f. c #3372BE",
"g. c #445792",
"h. c #6A5F8F",
"j. c #4C628F",
"k. c #5A6B8C",
"l. c #526297",
"z. c #4E7699",
"x. c #726E8D",
"c. c #6A7691",
"v. c #425FA6",
"b. c #4766AA",
"n. c #536DAE",
"m. c #517AA3",
"M. c #456AB8",
"N. c #5373B9",
"B. c #727BAC",
"V. c #3077C1",
"C. c #4B75C6",
"Z. c #567BC6",
"A. c #876988",
"S. c #498199",
"D. c #678298",
"F. c #79849A",
"G. c #5985B3",
"H. c #7483A2",
"J. c #7390B2",
"K. c #5D84C8",
"L. c #428CD9",
"P. c #4190DB",
"I. c #5C9FDB",
"U. c #6584C9",
"Y. c #6895CC",
"T. c #6889D1",
"R. c #7590D0",
"E. c #7794D5",
"W. c #5EA0DA",
"Q. c #7DA3D2",
"!. c #4D94E2",
"~. c #62A5E1",
"^. c #928281",
"/. c #868797",
"(. c #989798",
"). c #B18F85",
"_. c #8A91AB",
"`. c #96A1BB",
"'. c #B3ADAE",
"]. c #B9B8BC",
"[. c #C69692",
"{. c #D3A282",
"}. c #DBB599",
"|. c #ECB98D",
" X c #CBB4B2",
".X c #FBD09E",
"XX c #F2CCAB",
"oX c #F9D5A1",
"OX c #FFDBAC",
"+X c #EFD8B0",
"@X c #FED7B4",
"#X c #FFE0AC",
"$X c #FFE6BA",
"%X c #8A9DCB",
"&X c #859CD2",
"*X c #88A9C5",
"=X c #8BA5DC",
"-X c #97ACDB",
";X c #9BB0DF",
":X c #A0A7C3",
">X c #B8BAC3",
",X c #97AFE2",
"<X c #99B5E2",
"1X c #A5BAE6",
"2X c #A4C3EF",
"3X c #B9C7E4",
"4X c #C8C9CC",
"5X c #D7D2CD",
"6X c #E5D0CC",
"7X c #FFE9C5",
"8X c #F7EAD6",
"9X c #FFF7DE",
"0X c #C2CCE0",
"qX c #D4DDEF",
"wX c #C9DBF4",
"eX c #D8E9FD",
"rX c #E4E7E8",
"tX c #FFF9E4",
"yX c #FEF6E9",
"uX c #ECF7FE",
"iX c #F1FDFF",
"pX c #FFFFFF",
/* pixels */
"{ ] ] ' / { _ { [ 6 u.5.w 3 3 2.d.y.u 5 6 6 6 6 6 j _ } X.` ",
"( o.O.o.h 6 6 7 7 5 x Z.M.5.6.C.N.r z u.d.5.q 3 j O.| | | | ",
"| ....o.o.j t 5.u.g.7 r C.U.T.b.2.U.,XK.Z.u.g.c w w f | X.} ",
"_ { { | h 7 t u l.,XR.M.u.Z.M.t.U.<XC.i.2.9 -XE.M.6.y a | O.",
"O.} _ f u 6.M.Z.Z.d.-XT.T.M.Z.Z.d.C.T.R.i.;XT.y.t 3 a X.] ' ",
"( ) 3 x w q 7.N.M.Z.Z.R.Z.T.-X-XN.n.K.,XN.C.4.n.C.a.2.6 ( | ",
"` f f o r a.E.,XZ.u.R.<Xy.%X1XZ.B.'.g.Z.1XB.E.b.b.N.y.2.7 l ",
"o. .| p 6.R.*Xu.t.t.;XZ.l.%XE.n.'.rX].;.=X].-X=Xn.1 y y.x 4 ",
"( ' o 2.C.M.-.v.v.c.C.>.>X%X>.:XpXpXqXB.M.>Xl.&XJ.2.2.  j | ",
" .l c g.<.<.n.C.b. Xy.E 6XJ.0  XyX8XyX6Xv.'.k.i.r.<.w.x [ | ",
"{ 3 y.-.S A.Z.g.E U u R *.).[.|..X%.Y R 2 #.! l.h.S ,.y.3 [ ",
"' 4 O 2 ~ '.p.G {.m.@ D.}..X#X#X#X}.H.1 c.{.&.E ! ~ 2 y 4 ] ",
"[ j +.p W A.,.! XXeXo >XXXoX#X#XoX}.4X@ eXXX$.D A.W 3 a 6 _ ",
"| | | j e -.D #.XXiX, N |.+X7X7X$X|.N , uXXX@.S -.e d { j o.",
"} { [ a 3.2.i Y .X8XL K +XtXtXtXtX+XJ L 8X|.Y $ u 3.a _ { ' ",
" .{ ) l f w <.k.P &.%.%.8XtX9X9XyX8X%.&.&.P k.1.r f l | | ] ",
"^ _ |  .b V.2XwX8.K {.OX7X9XtXyXtX7X#X{.K 0.qX2Xf.b ] _ `  .",
"O.O. .; c._.`.3XeXJ.  K *.@X7X7X@X*.K   J.eX3X`.J.D.< ..` ` ",
"_ ' ] d H ].>XH.4XiX5X*X= K I I K = *XqXiX4XH.>X].H d X.X.{ ",
"| ( [ - X H (.F 8 `.wXuXrX*Xp.p.*XrXiX3X`.s F (.H X - X.| | ",
" . . .0.z.Z s & o 0 <._.:XR.!.P.R.`._.<.0 o 8 # M m.0...| { ",
"| | q.j.H ^.Q + 8 M 0 =.:.:.P.P.:.:.=.=.B # + Q @.G j.q.| | ",
"' X.s.x.T H S + n u M S S x./.F.x.S M n u g + S H W x.s.| | ",
"| ..s.D , > . # $ A 4.i.r.D J.J.D r.i.4.A % # . > , D s.} { ",
"_ { w.R.=XG.2.z P.: n D S Y.G.G.Y.S D n : L.g 2.K.Q.Y.w.`  .",
"O.{ 9.<XeX3Xe.7.v P.W.W.~.m.n s m.~.I.I.P.v 7.e.3XeX<X0.] ( ",
"_ _ 9.<XuX0Xe.f.w.A F.(./.M . . M /._./.A a.f.e.0XuX<X9.| X.",
"_ X. .9.wXqX1.X.) . N T B * < k * N W N $ } { 1.wXeX9.` _ X.",
"O...| | S.S.X.X.C & V W V m C C m V W F & [ [ [ S.z.]  .| _ ",
"( ( ' | ` | X.` O.} & & & C [ ' C & & & X.}  .| ( ^ X. .| X."
};
