/* XPM */
static char *result[] = {
/* columns rows colors chars-per-pixel */
"30 30 224 2 ",
"   c #0B0A00",
".  c #3B0000",
"X  c #362600",
"o  c #3E3119",
"O  c #2A1E28",
"+  c #172837",
"@  c #193938",
"#  c #2D2C2D",
"$  c #480000",
"%  c #4E0F00",
"&  c #750000",
"*  c #4A3311",
"=  c #4B3A30",
"-  c #3B6A38",
";  c #5B4700",
":  c #4D4134",
">  c #436534",
",  c #00004C",
"<  c #031551",
"1  c #16284C",
"2  c #192A4C",
"3  c #1C374C",
"4  c #092855",
"5  c #1A2B52",
"6  c #142C59",
"7  c #1C315A",
"8  c #213F4D",
"9  c #263A58",
"0  c #313958",
"q  c #033B62",
"w  c #0D326E",
"e  c #1E3566",
"r  c #00347C",
"t  c #263961",
"y  c #233D72",
"u  c #3B3B71",
"i  c #4D2652",
"p  c #28484A",
"a  c #254654",
"s  c #2E5450",
"d  c #36704A",
"f  c #3B7754",
"g  c #17407D",
"h  c #2E4667",
"j  c #334463",
"k  c #284479",
"l  c #394C78",
"z  c #4E4B4E",
"x  c #584B49",
"c  c #5B4F57",
"v  c #674D43",
"b  c #655757",
"n  c #735A59",
"m  c #74695C",
"M  c #4C476B",
"N  c #504C66",
"B  c #47576F",
"V  c #585A66",
"C  c #6A5864",
"Z  c #70596F",
"A  c #796766",
"S  c #74716D",
"D  c #696677",
"F  c #767578",
"G  c #874A00",
"H  c #A16D00",
"J  c #A27200",
"K  c #9A553E",
"L  c #AB7329",
"P  c #C37B32",
"I  c #9A5E5A",
"U  c #B47843",
"Y  c #A96758",
"T  c #826969",
"R  c #946D6E",
"E  c #877577",
"W  c #B07A73",
"Q  c #C47D4E",
"!  c #3C874D",
"~  c #3A884D",
"^  c #3D8553",
"/  c #3D8C53",
"(  c #3D8E59",
")  c #3F9053",
"_  c #428B4D",
"`  c #41914F",
"'  c #438D54",
"]  c #438E59",
"[  c #449255",
"{  c #499556",
"}  c #4C9957",
"|  c #449259",
" . c #4A945A",
".. c #4D995B",
"X. c #51985B",
"o. c #448E62",
"O. c #B58548",
"+. c #AB896E",
"@. c #C68854",
"#. c #D58D5E",
"$. c #CE9A65",
"%. c #DBAC73",
"&. c #EBA878",
"*. c #000083",
"=. c #00009C",
"-. c #093D8E",
";. c #0000BC",
":. c #064186",
">. c #244585",
",. c #2C4B8B",
"<. c #384B85",
"1. c #2B5288",
"2. c #375788",
"3. c #2B4C95",
"4. c #2C549B",
"5. c #37569A",
"6. c #146895",
"7. c #356E8C",
"8. c #004AA2",
"9. c #1A49A2",
"0. c #0053A8",
"q. c #2B51AF",
"w. c #3758A5",
"e. c #335CAC",
"r. c #385EAC",
"t. c #0364A6",
"y. c #096BB8",
"u. c #286BA8",
"i. c #3575AC",
"p. c #3C63B3",
"a. c #3768B6",
"s. c #3373B9",
"d. c #57578F",
"f. c #645A88",
"g. c #55708F",
"h. c #456E99",
"j. c #646D8A",
"k. c #6F6E8C",
"l. c #7A7B8A",
"z. c #405EA3",
"x. c #4867A6",
"c. c #566EA8",
"v. c #4E79A6",
"b. c #476CB8",
"n. c #4978BA",
"m. c #5876BB",
"M. c #637DB9",
"N. c #0047C6",
"B. c #3774C9",
"V. c #4A73C2",
"C. c #4375CB",
"Z. c #597DCA",
"A. c #627FC0",
"S. c #917882",
"D. c #3A818A",
"F. c #2186BF",
"G. c #468C84",
"H. c #7A829E",
"J. c #5181B4",
"K. c #7587AE",
"L. c #3A8ECF",
"P. c #5A8AC7",
"I. c #5493CE",
"U. c #6585CB",
"Y. c #7998C9",
"T. c #698AD1",
"R. c #609DD4",
"E. c #7291D4",
"W. c #5FA0DC",
"Q. c #63A1DC",
"!. c #7CA3D8",
"~. c #61A6E5",
"^. c #8F8C94",
"/. c #B1908F",
"(. c #8389A5",
"). c #9794A3",
"_. c #8B8BB2",
"`. c #989CB2",
"'. c #A995A7",
"]. c #9BA5B6",
"[. c #A7AAB1",
"{. c #CAA89E",
"}. c #EDB88A",
"|. c #F0BC8A",
" X c #E6BA96",
".X c #EFC996",
"XX c #F7C599",
"oX c #DFCBB4",
"OX c #FEDAA6",
"+X c #F0D0B3",
"@X c #FEE1AC",
"#X c #FFE7B9",
"$X c #879AC8",
"%X c #849CD6",
"&X c #98A3C9",
"*X c #87A5D9",
"=X c #90ABD0",
"-X c #94ABDD",
";X c #98AEDD",
":X c #ADB5CA",
">X c #B5BBC9",
",X c #A5B7D7",
"<X c #93ABE1",
"1X c #A4B9E3",
"2X c #B4C3CF",
"3X c #A9C4E8",
"4X c #B7CCE7",
"5X c #B8D0F0",
"6X c #D9D1CE",
"7X c #CCCFD1",
"8X c #F8DDC6",
"9X c #EDDDD4",
"0X c #FEE6C7",
"qX c #FFF3CE",
"wX c #FAE7D9",
"eX c #FFF5D9",
"rX c #C4D7EF",
"tX c #D7DCE1",
"yX c #DAE7ED",
"uX c #D6E6FC",
"iX c #FFFAE7",
"pX c #FFFBEB",
"aX c #EDEDF0",
"sX c #F4FAFE",
/* pixels */
"' ` ` _ ~ / / )  .d y r.>.1 1 1 r.r.,.7 1 5 2 2 5 a ( [ [ ) ",
"!  .X.{ ) s 5 5 7 6 4 5.U.r.,.r.U.3.0 w.p.w.e 4 p ..[ [ [ [ ",
"| } ..{ { | p y 3.z.d.6 3.U.U.U.,.w.-XE.Z.b.5.l 9 e 3 ( | ] ",
"/ ' ' [ [ a e t y M.*XU.r.p.Z.e.q.;XT.b.3.e K.<Xb.4.y a ' { ",
"..' ~ / a y 3.b.U.V.m.;XZ.U.e.T.b.V.Z.E.p.%X%Xz.y 1 a / [ _ ",
"~ / ^ 2 k t w z.b.b.U.Z.E.Z.E.1XT.c.b.-XT.V.e.x.Z.p.,.2 ! [ ",
"( | a a + y b.%X*XV.b.%X-X9.1X<X8.>Xl.x.<X$XA.A.5.Z.4.,.7 f ",
"} { [ [ 3 4.E.Y.q.9.m.<Xb.j.<XZ.d.tX6Xc.T.>X:X*XZ.< 7 w.k 3 ",
"~ ~ _ + >.Z.p.9.z.x.c.B.x.2XV.8.aXsXsX].b.&X_.M.Y.>.,.  s [ ",
"{ [ f h 5.8.9.Z.B.(.{.3./.6X-.Z wXwXpXwX_.).^.0.a.:.w.k ^ [ ",
"' } 2 5.-.n S.C.d.I K M Q }.S.}..X|.$.L i Y @.d.d.Z g w.1 ] ",
"_ ` 8 @ , Q '.0.R {.2.p ).XXXX#X#XXX).q h./.&.W S.#., y 3 ' ",
"' X.s ..3 R k.>.+.8X4Xx 6X|.OXOX@X.X6Xb 2X9X&.T f.R < p 5 ' ",
"[ [ [ { p r -.Z $.0XyX% R OX0XqX0XOX+.$ rXwX$.n -.r p ) s  .",
"] ' ' ' 3 <.y = U +X6XG L qXiXiXiXeXO.G oX+X@.% 6 <.3 ~ _ ` ",
"} / / ' - j >.6.k.P %.%..XpXiXeXeXiX+X%.&.P E J.>.h d ` ' ' ",
"~ ~  . .G.q t.4X3XB L  X#XqXiXiXiXqX#X XL l.P.P.t.@ / ' [ [ ",
"....o.o.5.j.:XrXuXrXg.$ U |.0X#X0X.XO.$ j.R.!.$XH.S d _ / ) ",
"/ ) [ F.h S [.[.].tXaX7XK.& J J H & K.2XsX2X`.tX6X[.# | [ ' ",
"[ ! 7.l b z V S b V ,XuXsX7XL.y.F.7XsXuX,XF S ^.).F a D.{ [ ",
"} } i.O v C : X X , *.x.`.&XB.W.C.&X`.c.*., z S E C j s.[ ' ",
"` ` u.R.V . l a.1.= N *.=.;.N.~.N.;.=.*.M = C ^.E n 0 i.[ ' ",
"_ { t.3X=XY.P.4.0 0 u c C D ^.H.H.j.C c u 7 b E T n j i.[ [ ",
"{ } t.3XrX!.B.k X = d.9.q.q.m R.A z.q.9.d.* * A T x + i.] ] ",
"/ / t.3X5XY.t.l h.n.; D D j.W.g.R.j.N N ; F.x.* . B !.u./ } ",
"..[ ^ i.4X*Xy.B.2.h.~.Q.R.R.B * B R.W.I.I.7.k J.-X,Xi.( [ _ ",
"~ / ' ] n.G.( | 7.x.D ^.).l.X a.# D D D V 1.P.5XuX3Xt.) [ [ ",
"/ |  .{ ] | | [ ` f = n T T x o.] o * * > } 6.4XyX6.{ [ / [ ",
"..} [ ' } { | | [ - x T T T x  .| ' { ' (  .' h.v.[ [ [ ] / ",
"~ ! ' [ [ [ | ( } ` ^ '  .[ _ _ ' | [ [ | ] [ [ / ^ [ [ [ [ "
};
