/* XPM */
static char *result[] = {
/* columns rows colors chars-per-pixel */
"30 30 198 2 ",
"   c #0B042A",
".  c #002A26",
"X  c #0C272C",
"o  c #003022",
"O  c #003C27",
"+  c #00372C",
"@  c #193925",
"#  c #193D2B",
"$  c #053D30",
"%  c #0B3830",
"&  c #263926",
"*  c #363B2E",
"=  c #222D34",
"-  c #372C35",
";  c #2E3335",
":  c #333538",
">  c #493E2A",
",  c #01452B",
"<  c #0A462C",
"1  c #024B2C",
"2  c #0B4D2D",
"3  c #1D462B",
"4  c #11482C",
"5  c #02532D",
"6  c #0D542E",
"7  c #005B2D",
"8  c #0C5A2E",
"9  c #14542F",
"0  c #15592E",
"q  c #004234",
"w  c #084D32",
"e  c #124531",
"r  c #164936",
"t  c #0B5431",
"y  c #045C30",
"u  c #0C5B30",
"i  c #145533",
"p  c #1B5431",
"a  c #145C32",
"s  c #1B5D33",
"d  c #135B38",
"f  c #1C5B39",
"g  c #21432F",
"h  c #36412F",
"j  c #35512F",
"k  c #2F4931",
"l  c #394A36",
"z  c #255433",
"x  c #2C5B34",
"c  c #205939",
"v  c #365331",
"b  c #385936",
"n  c #04602F",
"m  c #1B642F",
"M  c #036535",
"N  c #0D6333",
"B  c #016A34",
"V  c #0E6138",
"C  c #156332",
"Z  c #1A6432",
"A  c #136B34",
"S  c #1C6B35",
"D  c #106238",
"F  c #166D3B",
"G  c #1E7737",
"H  c #1E723D",
"J  c #226534",
"K  c #2B6433",
"L  c #246B35",
"P  c #2A6E35",
"I  c #23643B",
"U  c #2D653B",
"Y  c #246C3A",
"T  c #2C6B3D",
"R  c #3D6037",
"E  c #32663C",
"W  c #39663D",
"Q  c #326B3D",
"!  c #396B3E",
"~  c #237137",
"^  c #2B7336",
"/  c #237439",
"(  c #2A7439",
")  c #237A3A",
"_  c #2C7B3A",
"`  c #317337",
"'  c #327A37",
"]  c #3C7038",
"[  c #337C3A",
"{  c #397C3A",
"}  c #47422D",
"|  c #464636",
" . c #4C4934",
".. c #484D3E",
"X. c #534B35",
"o. c #5F4E37",
"O. c #574A3A",
"+. c #425235",
"@. c #46553A",
"#. c #4C5538",
"$. c #4E5B3D",
"%. c #52563B",
"&. c #5E533E",
"*. c #64533E",
"=. c #68563F",
"-. c #44643C",
";. c #4E603C",
":. c #1C6540",
">. c #246C42",
",. c #2D6941",
"<. c #316343",
"1. c #336C42",
"2. c #3A6D43",
"3. c #277041",
"4. c #2C7443",
"5. c #2F7A43",
"6. c #2F7649",
"7. c #2E7B4B",
"8. c #327244",
"9. c #3A7543",
"0. c #327C45",
"q. c #3B7B47",
"w. c #36724B",
"e. c #377D4B",
"r. c #397C4C",
"t. c #377D50",
"y. c #5D5D42",
"u. c #695747",
"i. c #635B45",
"p. c #6B5A42",
"a. c #705F4A",
"s. c #4D6441",
"d. c #5B6344",
"f. c #566E48",
"g. c #746247",
"h. c #77644B",
"j. c #78664E",
"k. c #7C6951",
"l. c #826E53",
"z. c #877457",
"x. c #887457",
"c. c #8B7858",
"v. c #2C813B",
"b. c #35833C",
"n. c #3B853C",
"m. c #37883D",
"M. c #3B8A3E",
"N. c #44853C",
"B. c #438C3E",
"V. c #4A8E3E",
"C. c #44903F",
"Z. c #4A933F",
"A. c #559C3F",
"S. c #368941",
"D. c #3C8D41",
"F. c #368149",
"G. c #3C844C",
"H. c #3A8B4F",
"J. c #3D9446",
"K. c #3C8654",
"L. c #3D8C53",
"P. c #388854",
"I. c #3F9054",
"U. c #448F42",
"Y. c #4A8E42",
"T. c #42844D",
"R. c #418B4D",
"E. c #459342",
"W. c #4C9543",
"Q. c #4D9A44",
"!. c #42924F",
"~. c #549D45",
"^. c #5A9D44",
"/. c #428751",
"(. c #438D54",
"). c #438E59",
"_. c #449255",
"`. c #4B9656",
"'. c #4D9857",
"]. c #469258",
"[. c #4B9359",
"{. c #4D985A",
"}. c #55A147",
"|. c #5BA245",
" X c #5DA549",
".X c #5CA94A",
"XX c #62A544",
"oX c #66AB45",
"OX c #6AAB46",
"+X c #63AB4B",
"@X c #69AD4C",
"#X c #6CB24D",
"$X c #70B246",
"%X c #72B34C",
"&X c #6CB450",
"*X c #74B552",
"=X c #84BD4A",
"-X c #88C24F",
/* pixels */
"(.!.!.(.P.L.I._.[.[.).t.6.5.5.H / 3.e.L.]._.[.[.).P.I.)._._.",
"G.'.{.].I.].].I./.0.[ _ b.~.oXW.S.S.( / F.4.'.'.[.{.].]._._.",
"].`.'.[.[.].H.4.M W.$XOXS._ m.U.~.~.U.F.S.) :.K.L.H._.(._.).",
"L.(.(._.].7.s J.+X^.OX+X^.XX~.E.#X|.^ 5 u s M V K.L.I.L.I.`.",
"{._.P.L.F.Y J Y.*X^.OX@X@X=XOXS.OX#XU., 1 ~ C.m.4./.I._.!.R.",
"H.H.e.,.F ) Y.&Xm.v.m.b.n.W.^ 7 B B V.OX^.B C.N.s 1 4.L._.].",
"I.].Y / ( P ~ ) m.OX%X~.G b./ N.A.Z.^.OX$XXXN.6 a H S >.L.I.",
"{.K.Y b.}. X{ . A  X%X~.D.%X#XXX-X-XoXZ.C.|.B.8 n.U._ F (.L.",
"G.Y F _ b.[ c y.= P n.P J W.W.v.^.A.B.{ ~ 1 1 s B.W.` w T.(.",
"H.F M.@X@X( @ i.a.: , 5 1 e k < 7 7 , 9 n.~.~ 1 6 8 6 9 I R.",
",.H / W.|.m.t ..y.l / _ i - p.x m 0 2 s n.N.-.l r , 0 S s w.",
"G.s , 7 y t 1 + w / S S ^ / S B..XM.N 5 .   : u.| % Z v.J 8.",
"e.t u 8 1 , 9 P S , ` ^.#X&X XC J D 7 ^ n.^ D p K / Z a S >.",
"t / U.Q.D.S { |.@XV.' ^.#X XV.C L N.W..X@X}..XZ.v./ C 1 8 8.",
"d 0.W.U.^ Z _ C.^.+Xn.D S C , J +X+X^.n.S J L s i w 1 1 4 G.",
"0.t S ( m # v g 0 ^ J 5 7 3 } R C 5 , O , 7 7 , , 6 S S J G.",
"7.t _ M.^ X ; - X + , C S m l g 5 L C 4 ; * $ + 8 8 ~ _ C w.",
"t.Y L Z 8 8 t ] ` P ` { n.Z.[ , 1 m C 0 K x q 1 C Z 6 , i _.",
"G.2 1 ^ b.m 0 B.M.Q.~.Z.Z.~.{ ^ b.J 5 L Q.}.[ Z Y.E.P , <./.",
"_.T 1 S Z 1 2 0 0 s b.' 6 , 1 { A.m._ m.m.n.b._ Y.D.Z i _.`.",
"].`.R.f O 6 S ) 2 , C ) S 1 o 5 n u _ D._ 1 , 5 a N a 6.].(.",
"(._.!.R.q.8.s 6 p < 8 M 8 +.h.%.& @ a A C 2 c c i >.P.I.].(.",
"R.].[.].L.].(.L.`.T.,.4 h =.x.z.*.-.I f I 6.'.'.].'.]._._.!.",
"`.'.{.[.).(.G.G.8.Q 8.T ;.j.x.x.p.+.2.G.9.2.1.0.H.H.I.(.).(.",
"P.(./.q.Q I U Q 2.9.1.z #.g.x.l.*.> j I U 1.Q E ,.1.r.L.L.`.",
"{._.F.T U T U 1.! T f.i.o.g.c.k.a.*.p.d.v 2.U U T E 8.H.!.R.",
"H.L.e.1.E Q Q U s.&.p.p.=.g.h.p.j.a.*.X.O.i.@.2.1.Q T G._.].",
"I.].T.8.Q 1.Q ! ;.#. .*.g.*.#.*.> =.u.X.X. .l 1.Q Q q.G.L._.",
"{.`._.G.9.E Q Q 8.U +.X.X.#.$.%.#.@.;.d.$.W U E Q 9.R.].(.L.",
"G.H.R.].G.G.r.8.T.q.E E ! ! b v E Q T Q 9.r.q.r.F.K.].`.].(."
};
